<svg width="1410" height="228" viewBox="0 0 1410 228" fill="none" xmlns="http://www.w3.org/2000/svg">
<path d="M279.79 155H269.136L281.139 118.636H294.634L306.636 155H295.983L288.028 128.651H287.744L279.79 155ZM277.801 140.653H297.83V148.04H277.801V140.653ZM328.325 130C328.23 128.816 327.786 127.893 326.993 127.23C326.212 126.567 325.022 126.236 323.424 126.236C322.406 126.236 321.572 126.36 320.921 126.609C320.282 126.845 319.808 127.171 319.5 127.585C319.193 128 319.033 128.473 319.021 129.006C318.997 129.444 319.074 129.84 319.252 130.195C319.441 130.539 319.737 130.852 320.14 131.136C320.542 131.409 321.057 131.657 321.684 131.882C322.312 132.107 323.057 132.308 323.922 132.486L326.904 133.125C328.917 133.551 330.639 134.113 332.071 134.812C333.504 135.51 334.676 136.333 335.587 137.28C336.498 138.215 337.167 139.268 337.593 140.44C338.031 141.612 338.256 142.891 338.268 144.276C338.256 146.667 337.658 148.691 336.475 150.348C335.291 152.005 333.598 153.266 331.397 154.13C329.207 154.994 326.573 155.426 323.495 155.426C320.335 155.426 317.577 154.959 315.221 154.023C312.877 153.088 311.055 151.65 309.752 149.709C308.462 147.756 307.811 145.258 307.799 142.216H317.174C317.234 143.329 317.512 144.264 318.009 145.021C318.506 145.779 319.204 146.353 320.104 146.744C321.016 147.134 322.099 147.33 323.353 147.33C324.407 147.33 325.289 147.199 325.999 146.939C326.709 146.679 327.248 146.317 327.615 145.856C327.982 145.394 328.171 144.867 328.183 144.276C328.171 143.719 327.988 143.234 327.632 142.82C327.289 142.393 326.721 142.015 325.928 141.683C325.135 141.34 324.064 141.02 322.714 140.724L319.092 139.943C315.872 139.245 313.333 138.079 311.475 136.445C309.628 134.8 308.711 132.557 308.723 129.716C308.711 127.408 309.326 125.389 310.569 123.661C311.824 121.921 313.558 120.566 315.772 119.595C317.997 118.625 320.548 118.139 323.424 118.139C326.36 118.139 328.899 118.63 331.042 119.613C333.184 120.595 334.835 121.98 335.995 123.768C337.167 125.543 337.759 127.621 337.771 130H328.325ZM361.626 130C361.531 128.816 361.087 127.893 360.294 127.23C359.513 126.567 358.323 126.236 356.725 126.236C355.707 126.236 354.873 126.36 354.222 126.609C353.582 126.845 353.109 127.171 352.801 127.585C352.493 128 352.334 128.473 352.322 129.006C352.298 129.444 352.375 129.84 352.553 130.195C352.742 130.539 353.038 130.852 353.44 131.136C353.843 131.409 354.358 131.657 354.985 131.882C355.612 132.107 356.358 132.308 357.222 132.486L360.205 133.125C362.218 133.551 363.94 134.113 365.372 134.812C366.804 135.51 367.976 136.333 368.888 137.28C369.799 138.215 370.468 139.268 370.894 140.44C371.332 141.612 371.557 142.891 371.569 144.276C371.557 146.667 370.959 148.691 369.776 150.348C368.592 152.005 366.899 153.266 364.697 154.13C362.508 154.994 359.874 155.426 356.796 155.426C353.636 155.426 350.878 154.959 348.522 154.023C346.178 153.088 344.355 151.65 343.053 149.709C341.763 147.756 341.112 145.258 341.1 142.216H350.475C350.534 143.329 350.813 144.264 351.31 145.021C351.807 145.779 352.505 146.353 353.405 146.744C354.316 147.134 355.399 147.33 356.654 147.33C357.708 147.33 358.589 147.199 359.3 146.939C360.01 146.679 360.549 146.317 360.915 145.856C361.282 145.394 361.472 144.867 361.484 144.276C361.472 143.719 361.288 143.234 360.933 142.82C360.59 142.393 360.022 142.015 359.229 141.683C358.436 141.34 357.364 141.02 356.015 140.724L352.393 139.943C349.173 139.245 346.634 138.079 344.776 136.445C342.929 134.8 342.012 132.557 342.023 129.716C342.012 127.408 342.627 125.389 343.87 123.661C345.125 121.921 346.859 120.566 349.072 119.595C351.298 118.625 353.849 118.139 356.725 118.139C359.661 118.139 362.2 118.63 364.342 119.613C366.485 120.595 368.136 121.98 369.296 123.768C370.468 125.543 371.06 127.621 371.072 130H361.626ZM385.196 118.636V155H375.324V118.636H385.196ZM413.49 130.639C413.336 130.012 413.094 129.461 412.762 128.988C412.431 128.503 412.016 128.094 411.519 127.763C411.034 127.42 410.466 127.165 409.815 126.999C409.175 126.822 408.471 126.733 407.702 126.733C406.045 126.733 404.63 127.129 403.458 127.923C402.298 128.716 401.41 129.858 400.795 131.349C400.191 132.841 399.889 134.64 399.889 136.747C399.889 138.878 400.179 140.701 400.759 142.216C401.339 143.731 402.203 144.891 403.352 145.696C404.5 146.501 405.926 146.903 407.631 146.903C409.134 146.903 410.383 146.684 411.377 146.246C412.383 145.808 413.135 145.187 413.632 144.382C414.129 143.577 414.378 142.63 414.378 141.541L416.082 141.719H407.773V134.688H423.895V139.73C423.895 143.045 423.191 145.879 421.782 148.235C420.385 150.579 418.456 152.378 415.994 153.633C413.543 154.876 410.732 155.497 407.56 155.497C404.02 155.497 400.913 154.746 398.238 153.242C395.563 151.739 393.473 149.596 391.97 146.815C390.479 144.033 389.733 140.724 389.733 136.889C389.733 133.883 390.189 131.219 391.1 128.899C392.023 126.579 393.302 124.62 394.935 123.022C396.569 121.412 398.457 120.199 400.599 119.382C402.742 118.554 405.038 118.139 407.489 118.139C409.643 118.139 411.643 118.447 413.49 119.062C415.348 119.666 416.988 120.53 418.408 121.655C419.841 122.768 420.995 124.087 421.871 125.614C422.747 127.141 423.279 128.816 423.469 130.639H413.49ZM459.961 118.636V155H451.722L438.583 135.895H438.37V155H428.498V118.636H436.879L449.805 137.67H450.089V118.636H459.961ZM464.631 118.636H476.918L485.369 139.233H485.796L494.247 118.636H506.534V155H496.875V133.977H496.591L488.494 154.716H482.671L474.574 133.835H474.29V155H464.631V118.636ZM511.213 155V118.636H537.42V126.591H521.085V132.841H536.071V140.795H521.085V147.045H537.349V155H511.213ZM573.779 118.636V155H565.541L552.402 135.895H552.189V155H542.316V118.636H550.697L563.623 137.67H563.907V118.636H573.779ZM577.455 126.591V118.636H609.06V126.591H598.123V155H588.392V126.591H577.455ZM305.571 197.818C305.571 201.866 304.784 205.281 303.21 208.063C301.635 210.833 299.51 212.934 296.835 214.366C294.16 215.787 291.177 216.497 287.886 216.497C284.572 216.497 281.577 215.781 278.902 214.349C276.239 212.905 274.12 210.798 272.545 208.028C270.983 205.246 270.202 201.843 270.202 197.818C270.202 193.77 270.983 190.361 272.545 187.591C274.12 184.809 276.239 182.708 278.902 181.288C281.577 179.855 284.572 179.139 287.886 179.139C291.177 179.139 294.16 179.855 296.835 181.288C299.51 182.708 301.635 184.809 303.21 187.591C304.784 190.361 305.571 193.77 305.571 197.818ZM295.415 197.818C295.415 195.64 295.125 193.805 294.545 192.314C293.977 190.811 293.13 189.674 292.006 188.905C290.893 188.124 289.52 187.733 287.886 187.733C286.253 187.733 284.874 188.124 283.749 188.905C282.637 189.674 281.79 190.811 281.21 192.314C280.642 193.805 280.358 195.64 280.358 197.818C280.358 199.996 280.642 201.837 281.21 203.34C281.79 204.832 282.637 205.968 283.749 206.749C284.874 207.519 286.253 207.903 287.886 207.903C289.52 207.903 290.893 207.519 292.006 206.749C293.13 205.968 293.977 204.832 294.545 203.34C295.125 201.837 295.415 199.996 295.415 197.818ZM310.139 216V179.636H325.835C328.534 179.636 330.895 180.169 332.919 181.234C334.943 182.3 336.518 183.797 337.642 185.727C338.767 187.656 339.329 189.911 339.329 192.491C339.329 195.096 338.749 197.351 337.589 199.256C336.441 201.162 334.825 202.63 332.742 203.66C330.67 204.69 328.249 205.205 325.48 205.205H316.105V197.534H323.491C324.651 197.534 325.639 197.333 326.456 196.93C327.285 196.516 327.918 195.93 328.356 195.173C328.806 194.415 329.031 193.521 329.031 192.491C329.031 191.45 328.806 190.562 328.356 189.828C327.918 189.082 327.285 188.514 326.456 188.124C325.639 187.721 324.651 187.52 323.491 187.52H320.011V216H310.139ZM342.951 216V179.636H369.159V187.591H352.823V193.841H367.809V201.795H352.823V208.045H369.088V216H342.951ZM374.055 216V179.636H389.751C392.45 179.636 394.811 180.128 396.835 181.11C398.859 182.093 400.434 183.507 401.558 185.354C402.683 187.2 403.245 189.414 403.245 191.994C403.245 194.598 402.665 196.794 401.505 198.582C400.357 200.369 398.741 201.719 396.658 202.63C394.586 203.541 392.165 203.997 389.396 203.997H380.021V196.327H387.407C388.567 196.327 389.555 196.185 390.372 195.901C391.201 195.605 391.834 195.137 392.272 194.498C392.722 193.859 392.947 193.024 392.947 191.994C392.947 190.953 392.722 190.106 392.272 189.455C391.834 188.792 391.201 188.307 390.372 187.999C389.555 187.68 388.567 187.52 387.407 187.52H383.927V216H374.055ZM395.362 199.31L404.452 216H393.728L384.85 199.31H395.362ZM416.899 216H406.246L418.249 179.636H431.743L443.746 216H433.092L425.138 189.651H424.854L416.899 216ZM414.911 201.653H434.939V209.04H414.911V201.653ZM441.615 187.591V179.636H473.22V187.591H462.283V216H452.553V187.591H441.615ZM510.454 197.818C510.454 201.866 509.667 205.281 508.092 208.063C506.518 210.833 504.393 212.934 501.718 214.366C499.043 215.787 496.06 216.497 492.769 216.497C489.455 216.497 486.46 215.781 483.785 214.349C481.121 212.905 479.003 210.798 477.428 208.028C475.866 205.246 475.085 201.843 475.085 197.818C475.085 193.77 475.866 190.361 477.428 187.591C479.003 184.809 481.121 182.708 483.785 181.288C486.46 179.855 489.455 179.139 492.769 179.139C496.06 179.139 499.043 179.855 501.718 181.288C504.393 182.708 506.518 184.809 508.092 187.591C509.667 190.361 510.454 193.77 510.454 197.818ZM500.298 197.818C500.298 195.64 500.008 193.805 499.428 192.314C498.859 190.811 498.013 189.674 496.888 188.905C495.776 188.124 494.403 187.733 492.769 187.733C491.136 187.733 489.757 188.124 488.632 188.905C487.519 189.674 486.673 190.811 486.093 192.314C485.525 193.805 485.241 195.64 485.241 197.818C485.241 199.996 485.525 201.837 486.093 203.34C486.673 204.832 487.519 205.968 488.632 206.749C489.757 207.519 491.136 207.903 492.769 207.903C494.403 207.903 495.776 207.519 496.888 206.749C498.013 205.968 498.859 204.832 499.428 203.34C500.008 201.837 500.298 199.996 500.298 197.818ZM515.021 216V179.636H530.718C533.416 179.636 535.778 180.128 537.802 181.11C539.826 182.093 541.401 183.507 542.525 185.354C543.65 187.2 544.212 189.414 544.212 191.994C544.212 194.598 543.632 196.794 542.472 198.582C541.324 200.369 539.708 201.719 537.624 202.63C535.553 203.541 533.132 203.997 530.362 203.997H520.987V196.327H528.374C529.534 196.327 530.522 196.185 531.339 195.901C532.168 195.605 532.801 195.137 533.239 194.498C533.689 193.859 533.914 193.024 533.914 191.994C533.914 190.953 533.689 190.106 533.239 189.455C532.801 188.792 532.168 188.307 531.339 187.999C530.522 187.68 529.534 187.52 528.374 187.52H524.894V216H515.021ZM536.328 199.31L545.419 216H534.695L525.817 199.31H536.328Z" fill="#FF7400"/>
<path d="M28.05 53.95C28.05 56.55 26.9667 58.4667 24.8 59.7C22.6333 60.9667 19.3833 61.6 15.05 61.6C10.8833 61.6 7.88333 61.05 6.05 59.95C4.25 58.85 3.35 57.2667 3.35 55.2C3.35 53.8 3.71667 52.7167 4.45 51.95C5.18333 51.1833 6.21667 50.6167 7.55 50.25V49.65C6.81667 49.2833 6.25 48.8167 5.85 48.25C5.45 47.6833 5.25 46.9667 5.25 46.1C5.25 44.7667 5.68333 43.7667 6.55 43.1C7.45 42.4333 8.56667 41.9333 9.9 41.6V41.4C8.3 40.7 7.05 39.6667 6.15 38.3C5.28333 36.9333 4.85 35.3333 4.85 33.5C4.85 32.2 5.08333 31 5.55 29.9C6.01667 28.8 6.68333 27.8667 7.55 27.1C8.45 26.3 9.51667 25.6833 10.75 25.25C11.9833 24.8167 13.35 24.6 14.85 24.6C16.7833 24.6 18.4833 24.95 19.95 25.65V25.2C19.95 24.2 20.1833 23.3667 20.65 22.7C21.1167 22.0333 21.9167 21.7 23.05 21.7H27.8V25.2H22V26.95C22.9333 27.75 23.65 28.7 24.15 29.8C24.65 30.9 24.9 32.1333 24.9 33.5C24.9 34.8 24.65 36 24.15 37.1C23.6833 38.2 23.0167 39.15 22.15 39.95C21.2833 40.7167 20.2167 41.3167 18.95 41.75C17.7167 42.1833 16.35 42.4 14.85 42.4C14.4167 42.4 14 42.3833 13.6 42.35C13.2 42.3167 12.8 42.2667 12.4 42.2C12 42.2667 11.5833 42.3833 11.15 42.55C10.7167 42.6833 10.3167 42.8833 9.95 43.15C9.58333 43.3833 9.28333 43.6667 9.05 44C8.81667 44.3333 8.7 44.7167 8.7 45.15C8.7 45.9167 9.08333 46.4333 9.85 46.7C10.6167 46.9333 11.6167 47.05 12.85 47.05H18.55C21.8833 47.05 24.3 47.6833 25.8 48.95C27.3 50.1833 28.05 51.85 28.05 53.95ZM24.3 54.15C24.3 53.1167 23.8833 52.2833 23.05 51.65C22.2167 51.05 20.7667 50.75 18.7 50.75H9.75C8.01667 51.45 7.15 52.6167 7.15 54.25C7.15 55.3833 7.6 56.35 8.5 57.15C9.4 57.9833 10.9 58.4 13 58.4H16.9C19.2333 58.4 21.05 58.0333 22.35 57.3C23.65 56.6 24.3 55.55 24.3 54.15ZM14.85 39.3C16.85 39.3 18.3167 38.8333 19.25 37.9C20.2167 36.9667 20.7 35.7333 20.7 34.2V32.75C20.7 31.2167 20.2167 30 19.25 29.1C18.3167 28.1667 16.85 27.7 14.85 27.7C12.85 27.7 11.3833 28.1667 10.45 29.1C9.51667 30 9.05 31.2167 9.05 32.75V34.2C9.05 35.7333 9.51667 36.9667 10.45 37.9C11.3833 38.8333 12.85 39.3 14.85 39.3ZM33.8305 47.6H41.3805V28.6H33.8305V25.2H45.3805V31.7H45.6305C46.1638 29.6667 47.1638 28.0833 48.6305 26.95C50.1305 25.7833 52.0305 25.2 54.3305 25.2H57.9305V29.2H53.0805C50.7805 29.2 48.9138 29.8667 47.4805 31.2C46.0805 32.5333 45.3805 34.2833 45.3805 36.45V47.6H55.3805V51H33.8305V47.6ZM84.7109 51C83.1443 51 82.0276 50.6 81.3609 49.8C80.6943 49 80.2776 48 80.1109 46.8H79.8609C79.2943 48.3 78.3776 49.4833 77.1109 50.35C75.8776 51.1833 74.2109 51.6 72.1109 51.6C69.4109 51.6 67.2609 50.9 65.6609 49.5C64.0609 48.1 63.2609 46.1833 63.2609 43.75C63.2609 41.35 64.1276 39.5 65.8609 38.2C67.6276 36.9 70.4609 36.25 74.3609 36.25H79.8609V33.7C79.8609 31.8 79.3276 30.3833 78.2609 29.45C77.1943 28.4833 75.6776 28 73.7109 28C71.9776 28 70.5609 28.35 69.4609 29.05C68.3609 29.7167 67.4776 30.6333 66.8109 31.8L64.1109 29.8C64.4443 29.1333 64.8943 28.4833 65.4609 27.85C66.0276 27.2167 66.7276 26.6667 67.5609 26.2C68.3943 25.7 69.3443 25.3167 70.4109 25.05C71.4776 24.75 72.6609 24.6 73.9609 24.6C76.9943 24.6 79.3943 25.3667 81.1609 26.9C82.9609 28.4333 83.8609 30.5667 83.8609 33.3V47.5H87.4609V51H84.7109ZM72.8109 48.25C73.8443 48.25 74.7776 48.1333 75.6109 47.9C76.4776 47.6333 77.2276 47.3 77.8609 46.9C78.4943 46.4667 78.9776 45.9667 79.3109 45.4C79.6776 44.8 79.8609 44.1667 79.8609 43.5V39.25H74.3609C71.9609 39.25 70.2109 39.5833 69.1109 40.25C68.0109 40.9167 67.4609 41.8833 67.4609 43.15V44.2C67.4609 45.5333 67.9276 46.55 68.8609 47.25C69.8276 47.9167 71.1443 48.25 72.8109 48.25ZM94.8414 51V25.2H98.8414V29.4H99.0414C99.3081 28.7667 99.6414 28.1667 100.041 27.6C100.441 27 100.925 26.4833 101.491 26.05C102.091 25.6167 102.791 25.2667 103.591 25C104.391 24.7333 105.325 24.6 106.391 24.6C109.091 24.6 111.258 25.4667 112.891 27.2C114.525 28.9 115.341 31.3167 115.341 34.45V51H111.341V35.15C111.341 32.7833 110.825 31.0333 109.791 29.9C108.758 28.7333 107.241 28.15 105.241 28.15C104.441 28.15 103.658 28.25 102.891 28.45C102.125 28.65 101.441 28.95 100.841 29.35C100.241 29.75 99.7581 30.2667 99.3914 30.9C99.0247 31.5333 98.8414 32.2667 98.8414 33.1V51H94.8414ZM136.172 51C134.205 51 132.755 50.45 131.822 49.35C130.922 48.25 130.472 46.8333 130.472 45.1V28.6H121.872V25.2H128.272C129.139 25.2 129.739 25.0333 130.072 24.7C130.439 24.3333 130.622 23.7167 130.622 22.85V16.1H134.472V25.2H146.222V28.6H134.472V47.6H146.222V51H136.172ZM165.202 51.6C162.502 51.6 160.169 51.15 158.202 50.25C156.269 49.3167 154.619 48.0833 153.252 46.55L155.952 44.2C157.186 45.5 158.536 46.5 160.002 47.2C161.469 47.9 163.236 48.25 165.302 48.25C167.302 48.25 168.936 47.9 170.202 47.2C171.502 46.4667 172.152 45.3333 172.152 43.8C172.152 43.1333 172.019 42.5833 171.752 42.15C171.519 41.6833 171.186 41.3167 170.752 41.05C170.319 40.7833 169.836 40.5833 169.302 40.45C168.769 40.2833 168.202 40.15 167.602 40.05L163.552 39.45C162.652 39.3167 161.669 39.1333 160.602 38.9C159.569 38.6667 158.619 38.3 157.752 37.8C156.886 37.2667 156.152 36.5667 155.552 35.7C154.986 34.8333 154.702 33.7 154.702 32.3C154.702 31 154.952 29.8833 155.452 28.95C155.986 27.9833 156.719 27.1833 157.652 26.55C158.586 25.8833 159.686 25.4 160.952 25.1C162.219 24.7667 163.602 24.6 165.102 24.6C167.436 24.6 169.452 24.9667 171.152 25.7C172.886 26.4333 174.369 27.45 175.602 28.75L173.002 31.2C172.702 30.8333 172.319 30.4667 171.852 30.1C171.419 29.7 170.869 29.35 170.202 29.05C169.569 28.7167 168.819 28.45 167.952 28.25C167.086 28.05 166.086 27.95 164.952 27.95C162.919 27.95 161.352 28.3 160.252 29C159.186 29.7 158.652 30.7167 158.652 32.05C158.652 32.7167 158.769 33.2833 159.002 33.75C159.269 34.1833 159.619 34.5333 160.052 34.8C160.486 35.0667 160.969 35.2833 161.502 35.45C162.069 35.5833 162.636 35.7 163.202 35.8L167.252 36.4C168.186 36.5333 169.169 36.7167 170.202 36.95C171.236 37.1833 172.186 37.5667 173.052 38.1C173.919 38.6 174.636 39.2833 175.202 40.15C175.802 41.0167 176.102 42.15 176.102 43.55C176.102 46.1167 175.102 48.1 173.102 49.5C171.136 50.9 168.502 51.6 165.202 51.6ZM182.883 59.45V55.75H206.883V59.45H182.883ZM231.113 46.8H230.913C229.247 50 226.597 51.6 222.963 51.6C219.797 51.6 217.313 50.4167 215.513 48.05C213.747 45.6833 212.863 42.3667 212.863 38.1C212.863 33.8333 213.747 30.5167 215.513 28.15C217.313 25.7833 219.797 24.6 222.963 24.6C226.597 24.6 229.247 26.2 230.913 29.4H231.113V14H235.113V51H231.113V46.8ZM224.513 48.05C225.413 48.05 226.263 47.9333 227.063 47.7C227.863 47.4667 228.563 47.1333 229.163 46.7C229.763 46.2333 230.23 45.6833 230.563 45.05C230.93 44.3833 231.113 43.6167 231.113 42.75V33.45C231.113 32.5833 230.93 31.8333 230.563 31.2C230.23 30.5333 229.763 29.9833 229.163 29.55C228.563 29.0833 227.863 28.7333 227.063 28.5C226.263 28.2667 225.413 28.15 224.513 28.15C222.18 28.15 220.363 28.8667 219.063 30.3C217.797 31.7 217.163 33.5667 217.163 35.9V40.3C217.163 42.6333 217.797 44.5167 219.063 45.95C220.363 47.35 222.18 48.05 224.513 48.05ZM264.594 51C263.027 51 261.91 50.6 261.244 49.8C260.577 49 260.16 48 259.994 46.8H259.744C259.177 48.3 258.26 49.4833 256.994 50.35C255.76 51.1833 254.094 51.6 251.994 51.6C249.294 51.6 247.144 50.9 245.544 49.5C243.944 48.1 243.144 46.1833 243.144 43.75C243.144 41.35 244.01 39.5 245.744 38.2C247.51 36.9 250.344 36.25 254.244 36.25H259.744V33.7C259.744 31.8 259.21 30.3833 258.144 29.45C257.077 28.4833 255.56 28 253.594 28C251.86 28 250.444 28.35 249.344 29.05C248.244 29.7167 247.36 30.6333 246.694 31.8L243.994 29.8C244.327 29.1333 244.777 28.4833 245.344 27.85C245.91 27.2167 246.61 26.6667 247.444 26.2C248.277 25.7 249.227 25.3167 250.294 25.05C251.36 24.75 252.544 24.6 253.844 24.6C256.877 24.6 259.277 25.3667 261.044 26.9C262.844 28.4333 263.744 30.5667 263.744 33.3V47.5H267.344V51H264.594ZM252.694 48.25C253.727 48.25 254.66 48.1333 255.494 47.9C256.36 47.6333 257.11 47.3 257.744 46.9C258.377 46.4667 258.86 45.9667 259.194 45.4C259.56 44.8 259.744 44.1667 259.744 43.5V39.25H254.244C251.844 39.25 250.094 39.5833 248.994 40.25C247.894 40.9167 247.344 41.8833 247.344 43.15V44.2C247.344 45.5333 247.81 46.55 248.744 47.25C249.71 47.9167 251.027 48.25 252.694 48.25ZM286.074 51C284.108 51 282.658 50.45 281.724 49.35C280.824 48.25 280.374 46.8333 280.374 45.1V28.6H271.774V25.2H278.174C279.041 25.2 279.641 25.0333 279.974 24.7C280.341 24.3333 280.524 23.7167 280.524 22.85V16.1H284.374V25.2H296.124V28.6H284.374V47.6H296.124V51H286.074ZM324.555 51C322.988 51 321.871 50.6 321.205 49.8C320.538 49 320.121 48 319.955 46.8H319.705C319.138 48.3 318.221 49.4833 316.955 50.35C315.721 51.1833 314.055 51.6 311.955 51.6C309.255 51.6 307.105 50.9 305.505 49.5C303.905 48.1 303.105 46.1833 303.105 43.75C303.105 41.35 303.971 39.5 305.705 38.2C307.471 36.9 310.305 36.25 314.205 36.25H319.705V33.7C319.705 31.8 319.171 30.3833 318.105 29.45C317.038 28.4833 315.521 28 313.555 28C311.821 28 310.405 28.35 309.305 29.05C308.205 29.7167 307.321 30.6333 306.655 31.8L303.955 29.8C304.288 29.1333 304.738 28.4833 305.305 27.85C305.871 27.2167 306.571 26.6667 307.405 26.2C308.238 25.7 309.188 25.3167 310.255 25.05C311.321 24.75 312.505 24.6 313.805 24.6C316.838 24.6 319.238 25.3667 321.005 26.9C322.805 28.4333 323.705 30.5667 323.705 33.3V47.5H327.305V51H324.555ZM312.655 48.25C313.688 48.25 314.621 48.1333 315.455 47.9C316.321 47.6333 317.071 47.3 317.705 46.9C318.338 46.4667 318.821 45.9667 319.155 45.4C319.521 44.8 319.705 44.1667 319.705 43.5V39.25H314.205C311.805 39.25 310.055 39.5833 308.955 40.25C307.855 40.9167 307.305 41.8833 307.305 43.15V44.2C307.305 45.5333 307.771 46.55 308.705 47.25C309.671 47.9167 310.988 48.25 312.655 48.25ZM453.557 47.6H461.107V28.6H453.557V25.2H465.107V31.7H465.357C465.89 29.6667 466.89 28.0833 468.357 26.95C469.857 25.7833 471.757 25.2 474.057 25.2H477.657V29.2H472.807C470.507 29.2 468.64 29.8667 467.207 31.2C465.807 32.5333 465.107 34.2833 465.107 36.45V47.6H475.107V51H453.557V47.6ZM495.138 51.6C493.271 51.6 491.588 51.2833 490.088 50.65C488.621 50.0167 487.354 49.1167 486.287 47.95C485.254 46.75 484.454 45.3333 483.888 43.7C483.321 42.0333 483.038 40.1833 483.038 38.15C483.038 36.0833 483.321 34.2167 483.888 32.55C484.488 30.8833 485.304 29.4667 486.338 28.3C487.371 27.1 488.604 26.1833 490.038 25.55C491.504 24.9167 493.121 24.6 494.888 24.6C496.621 24.6 498.188 24.9167 499.588 25.55C501.021 26.1833 502.238 27.0667 503.238 28.2C504.238 29.3 505.004 30.6167 505.538 32.15C506.071 33.6833 506.338 35.3667 506.338 37.2V39.1H487.238V40.3C487.238 41.4333 487.421 42.4833 487.788 43.45C488.154 44.4167 488.671 45.25 489.338 45.95C490.038 46.65 490.871 47.2 491.838 47.6C492.838 47.9667 493.938 48.15 495.138 48.15C496.871 48.15 498.371 47.75 499.638 46.95C500.904 46.15 501.871 45.05 502.538 43.65L505.488 45.65C504.721 47.3833 503.438 48.8167 501.638 49.95C499.871 51.05 497.704 51.6 495.138 51.6ZM494.888 27.9C493.788 27.9 492.771 28.1 491.838 28.5C490.904 28.9 490.088 29.45 489.388 30.15C488.721 30.85 488.188 31.6833 487.788 32.65C487.421 33.5833 487.238 34.6167 487.238 35.75V36.1H502.038V35.55C502.038 34.4167 501.854 33.3833 501.488 32.45C501.154 31.5167 500.671 30.7167 500.038 30.05C499.438 29.35 498.688 28.8167 497.788 28.45C496.921 28.0833 495.954 27.9 494.888 27.9ZM534.418 51C532.851 51 531.735 50.6 531.068 49.8C530.401 49 529.985 48 529.818 46.8H529.568C529.001 48.3 528.085 49.4833 526.818 50.35C525.585 51.1833 523.918 51.6 521.818 51.6C519.118 51.6 516.968 50.9 515.368 49.5C513.768 48.1 512.968 46.1833 512.968 43.75C512.968 41.35 513.835 39.5 515.568 38.2C517.335 36.9 520.168 36.25 524.068 36.25H529.568V33.7C529.568 31.8 529.035 30.3833 527.968 29.45C526.901 28.4833 525.385 28 523.418 28C521.685 28 520.268 28.35 519.168 29.05C518.068 29.7167 517.185 30.6333 516.518 31.8L513.818 29.8C514.151 29.1333 514.601 28.4833 515.168 27.85C515.735 27.2167 516.435 26.6667 517.268 26.2C518.101 25.7 519.051 25.3167 520.118 25.05C521.185 24.75 522.368 24.6 523.668 24.6C526.701 24.6 529.101 25.3667 530.868 26.9C532.668 28.4333 533.568 30.5667 533.568 33.3V47.5H537.168V51H534.418ZM522.518 48.25C523.551 48.25 524.485 48.1333 525.318 47.9C526.185 47.6333 526.935 47.3 527.568 46.9C528.201 46.4667 528.685 45.9667 529.018 45.4C529.385 44.8 529.568 44.1667 529.568 43.5V39.25H524.068C521.668 39.25 519.918 39.5833 518.818 40.25C517.718 40.9167 517.168 41.8833 517.168 43.15V44.2C517.168 45.5333 517.635 46.55 518.568 47.25C519.535 47.9167 520.851 48.25 522.518 48.25ZM560.898 46.8H560.698C559.032 50 556.382 51.6 552.748 51.6C549.582 51.6 547.098 50.4167 545.298 48.05C543.532 45.6833 542.648 42.3667 542.648 38.1C542.648 33.8333 543.532 30.5167 545.298 28.15C547.098 25.7833 549.582 24.6 552.748 24.6C556.382 24.6 559.032 26.2 560.698 29.4H560.898V14H564.898V51H560.898V46.8ZM554.298 48.05C555.198 48.05 556.048 47.9333 556.848 47.7C557.648 47.4667 558.348 47.1333 558.948 46.7C559.548 46.2333 560.015 45.6833 560.348 45.05C560.715 44.3833 560.898 43.6167 560.898 42.75V33.45C560.898 32.5833 560.715 31.8333 560.348 31.2C560.015 30.5333 559.548 29.9833 558.948 29.55C558.348 29.0833 557.648 28.7333 556.848 28.5C556.048 28.2667 555.198 28.15 554.298 28.15C551.965 28.15 550.148 28.8667 548.848 30.3C547.582 31.7 546.948 33.5667 546.948 35.9V40.3C546.948 42.6333 547.582 44.5167 548.848 45.95C550.148 47.35 551.965 48.05 554.298 48.05ZM572.629 59.45V55.75H596.629V59.45H572.629ZM615.509 51.6C613.643 51.6 611.976 51.2833 610.509 50.65C609.076 49.9833 607.859 49.0667 606.859 47.9C605.859 46.7333 605.093 45.3167 604.559 43.65C604.059 41.9833 603.809 40.1333 603.809 38.1C603.809 36.0667 604.076 34.2167 604.609 32.55C605.143 30.8833 605.909 29.4667 606.909 28.3C607.909 27.1 609.126 26.1833 610.559 25.55C611.993 24.9167 613.626 24.6 615.459 24.6C617.959 24.6 619.993 25.15 621.559 26.25C623.126 27.35 624.276 28.7833 625.009 30.55L621.809 32.25C621.343 30.9167 620.559 29.8833 619.459 29.15C618.393 28.4167 617.059 28.05 615.459 28.05C614.293 28.05 613.243 28.25 612.309 28.65C611.409 29.0167 610.643 29.55 610.009 30.25C609.376 30.95 608.893 31.7833 608.559 32.75C608.259 33.7167 608.109 34.7667 608.109 35.9V40.3C608.109 41.4333 608.259 42.4833 608.559 43.45C608.893 44.4167 609.376 45.25 610.009 45.95C610.643 46.65 611.426 47.2 612.359 47.6C613.293 47.9667 614.359 48.15 615.559 48.15C617.293 48.15 618.726 47.75 619.859 46.95C620.993 46.15 621.893 45.05 622.559 43.65L625.409 45.6C624.643 47.3333 623.443 48.7667 621.809 49.9C620.209 51.0333 618.109 51.6 615.509 51.6ZM644.89 51.6C642.19 51.6 639.857 51.15 637.89 50.25C635.957 49.3167 634.307 48.0833 632.94 46.55L635.64 44.2C636.873 45.5 638.223 46.5 639.69 47.2C641.157 47.9 642.923 48.25 644.99 48.25C646.99 48.25 648.623 47.9 649.89 47.2C651.19 46.4667 651.84 45.3333 651.84 43.8C651.84 43.1333 651.707 42.5833 651.44 42.15C651.207 41.6833 650.873 41.3167 650.44 41.05C650.007 40.7833 649.523 40.5833 648.99 40.45C648.457 40.2833 647.89 40.15 647.29 40.05L643.24 39.45C642.34 39.3167 641.357 39.1333 640.29 38.9C639.257 38.6667 638.307 38.3 637.44 37.8C636.573 37.2667 635.84 36.5667 635.24 35.7C634.673 34.8333 634.39 33.7 634.39 32.3C634.39 31 634.64 29.8833 635.14 28.95C635.673 27.9833 636.407 27.1833 637.34 26.55C638.273 25.8833 639.373 25.4 640.64 25.1C641.907 24.7667 643.29 24.6 644.79 24.6C647.123 24.6 649.14 24.9667 650.84 25.7C652.573 26.4333 654.057 27.45 655.29 28.75L652.69 31.2C652.39 30.8333 652.007 30.4667 651.54 30.1C651.107 29.7 650.557 29.35 649.89 29.05C649.257 28.7167 648.507 28.45 647.64 28.25C646.773 28.05 645.773 27.95 644.64 27.95C642.607 27.95 641.04 28.3 639.94 29C638.873 29.7 638.34 30.7167 638.34 32.05C638.34 32.7167 638.457 33.2833 638.69 33.75C638.957 34.1833 639.307 34.5333 639.74 34.8C640.173 35.0667 640.657 35.2833 641.19 35.45C641.757 35.5833 642.323 35.7 642.89 35.8L646.94 36.4C647.873 36.5333 648.857 36.7167 649.89 36.95C650.923 37.1833 651.873 37.5667 652.74 38.1C653.607 38.6 654.323 39.2833 654.89 40.15C655.49 41.0167 655.79 42.15 655.79 43.55C655.79 46.1167 654.79 48.1 652.79 49.5C650.823 50.9 648.19 51.6 644.89 51.6ZM672.02 51L662.77 25.2H666.82L670.52 36L674.52 47.65H674.72L678.72 36L682.42 25.2H686.37L677.12 51H672.02ZM699.801 35.45C699.801 33.0167 700.067 30.6833 700.601 28.45C701.167 26.1833 701.917 24.0833 702.851 22.15C703.817 20.2167 704.934 18.4833 706.201 16.95C707.467 15.3833 708.801 14.0667 710.201 13H714.251C712.784 14.1 711.401 15.3833 710.101 16.85C708.834 18.2833 707.701 19.8667 706.701 21.6C705.734 23.3 704.967 25.15 704.401 27.15C703.834 29.1167 703.551 31.1667 703.551 33.3V37.6C703.551 39.7333 703.834 41.8 704.401 43.8C704.967 45.7667 705.734 47.6167 706.701 49.35C707.701 51.05 708.834 52.6167 710.101 54.05C711.401 55.5167 712.784 56.8 714.251 57.9H710.201C708.801 56.8667 707.467 55.5667 706.201 54C704.934 52.4333 703.817 50.6833 702.851 48.75C701.917 46.8167 701.167 44.7333 700.601 42.5C700.067 40.2333 699.801 37.8833 699.801 35.45ZM729.381 14H732.731L730.081 27.85H723.631L729.381 14ZM741.331 14H744.681L742.031 27.85H735.581L741.331 14ZM770.762 46.8H770.562C768.895 50 766.245 51.6 762.612 51.6C759.445 51.6 756.962 50.4167 755.162 48.05C753.395 45.6833 752.512 42.3667 752.512 38.1C752.512 33.8333 753.395 30.5167 755.162 28.15C756.962 25.7833 759.445 24.6 762.612 24.6C766.245 24.6 768.895 26.2 770.562 29.4H770.762V14H774.762V51H770.762V46.8ZM764.162 48.05C765.062 48.05 765.912 47.9333 766.712 47.7C767.512 47.4667 768.212 47.1333 768.812 46.7C769.412 46.2333 769.878 45.6833 770.212 45.05C770.578 44.3833 770.762 43.6167 770.762 42.75V33.45C770.762 32.5833 770.578 31.8333 770.212 31.2C769.878 30.5333 769.412 29.9833 768.812 29.55C768.212 29.0833 767.512 28.7333 766.712 28.5C765.912 28.2667 765.062 28.15 764.162 28.15C761.828 28.15 760.012 28.8667 758.712 30.3C757.445 31.7 756.812 33.5667 756.812 35.9V40.3C756.812 42.6333 757.445 44.5167 758.712 45.95C760.012 47.35 761.828 48.05 764.162 48.05ZM804.242 51C802.676 51 801.559 50.6 800.892 49.8C800.226 49 799.809 48 799.642 46.8H799.392C798.826 48.3 797.909 49.4833 796.642 50.35C795.409 51.1833 793.742 51.6 791.642 51.6C788.942 51.6 786.792 50.9 785.192 49.5C783.592 48.1 782.792 46.1833 782.792 43.75C782.792 41.35 783.659 39.5 785.392 38.2C787.159 36.9 789.992 36.25 793.892 36.25H799.392V33.7C799.392 31.8 798.859 30.3833 797.792 29.45C796.726 28.4833 795.209 28 793.242 28C791.509 28 790.092 28.35 788.992 29.05C787.892 29.7167 787.009 30.6333 786.342 31.8L783.642 29.8C783.976 29.1333 784.426 28.4833 784.992 27.85C785.559 27.2167 786.259 26.6667 787.092 26.2C787.926 25.7 788.876 25.3167 789.942 25.05C791.009 24.75 792.192 24.6 793.492 24.6C796.526 24.6 798.926 25.3667 800.692 26.9C802.492 28.4333 803.392 30.5667 803.392 33.3V47.5H806.992V51H804.242ZM792.342 48.25C793.376 48.25 794.309 48.1333 795.142 47.9C796.009 47.6333 796.759 47.3 797.392 46.9C798.026 46.4667 798.509 45.9667 798.842 45.4C799.209 44.8 799.392 44.1667 799.392 43.5V39.25H793.892C791.492 39.25 789.742 39.5833 788.642 40.25C787.542 40.9167 786.992 41.8833 786.992 43.15V44.2C786.992 45.5333 787.459 46.55 788.392 47.25C789.359 47.9167 790.676 48.25 792.342 48.25ZM825.723 51C823.756 51 822.306 50.45 821.373 49.35C820.473 48.25 820.023 46.8333 820.023 45.1V28.6H811.423V25.2H817.823C818.689 25.2 819.289 25.0333 819.623 24.7C819.989 24.3333 820.173 23.7167 820.173 22.85V16.1H824.023V25.2H835.773V28.6H824.023V47.6H835.773V51H825.723ZM864.203 51C862.636 51 861.52 50.6 860.853 49.8C860.186 49 859.77 48 859.603 46.8H859.353C858.786 48.3 857.87 49.4833 856.603 50.35C855.37 51.1833 853.703 51.6 851.603 51.6C848.903 51.6 846.753 50.9 845.153 49.5C843.553 48.1 842.753 46.1833 842.753 43.75C842.753 41.35 843.62 39.5 845.353 38.2C847.12 36.9 849.953 36.25 853.853 36.25H859.353V33.7C859.353 31.8 858.82 30.3833 857.753 29.45C856.686 28.4833 855.17 28 853.203 28C851.47 28 850.053 28.35 848.953 29.05C847.853 29.7167 846.97 30.6333 846.303 31.8L843.603 29.8C843.936 29.1333 844.386 28.4833 844.953 27.85C845.52 27.2167 846.22 26.6667 847.053 26.2C847.886 25.7 848.836 25.3167 849.903 25.05C850.97 24.75 852.153 24.6 853.453 24.6C856.486 24.6 858.886 25.3667 860.653 26.9C862.453 28.4333 863.353 30.5667 863.353 33.3V47.5H866.953V51H864.203ZM852.303 48.25C853.336 48.25 854.27 48.1333 855.103 47.9C855.97 47.6333 856.72 47.3 857.353 46.9C857.986 46.4667 858.47 45.9667 858.803 45.4C859.17 44.8 859.353 44.1667 859.353 43.5V39.25H853.853C851.453 39.25 849.703 39.5833 848.603 40.25C847.503 40.9167 846.953 41.8833 846.953 43.15V44.2C846.953 45.5333 847.42 46.55 848.353 47.25C849.32 47.9167 850.636 48.25 852.303 48.25ZM873.934 57.9L891.334 13H894.934L877.534 57.9H873.934ZM927.464 53.95C927.464 56.55 926.381 58.4667 924.214 59.7C922.047 60.9667 918.797 61.6 914.464 61.6C910.297 61.6 907.297 61.05 905.464 59.95C903.664 58.85 902.764 57.2667 902.764 55.2C902.764 53.8 903.131 52.7167 903.864 51.95C904.597 51.1833 905.631 50.6167 906.964 50.25V49.65C906.231 49.2833 905.664 48.8167 905.264 48.25C904.864 47.6833 904.664 46.9667 904.664 46.1C904.664 44.7667 905.097 43.7667 905.964 43.1C906.864 42.4333 907.981 41.9333 909.314 41.6V41.4C907.714 40.7 906.464 39.6667 905.564 38.3C904.697 36.9333 904.264 35.3333 904.264 33.5C904.264 32.2 904.497 31 904.964 29.9C905.431 28.8 906.097 27.8667 906.964 27.1C907.864 26.3 908.931 25.6833 910.164 25.25C911.397 24.8167 912.764 24.6 914.264 24.6C916.197 24.6 917.897 24.95 919.364 25.65V25.2C919.364 24.2 919.597 23.3667 920.064 22.7C920.531 22.0333 921.331 21.7 922.464 21.7H927.214V25.2H921.414V26.95C922.347 27.75 923.064 28.7 923.564 29.8C924.064 30.9 924.314 32.1333 924.314 33.5C924.314 34.8 924.064 36 923.564 37.1C923.097 38.2 922.431 39.15 921.564 39.95C920.697 40.7167 919.631 41.3167 918.364 41.75C917.131 42.1833 915.764 42.4 914.264 42.4C913.831 42.4 913.414 42.3833 913.014 42.35C912.614 42.3167 912.214 42.2667 911.814 42.2C911.414 42.2667 910.997 42.3833 910.564 42.55C910.131 42.6833 909.731 42.8833 909.364 43.15C908.997 43.3833 908.697 43.6667 908.464 44C908.231 44.3333 908.114 44.7167 908.114 45.15C908.114 45.9167 908.497 46.4333 909.264 46.7C910.031 46.9333 911.031 47.05 912.264 47.05H917.964C921.297 47.05 923.714 47.6833 925.214 48.95C926.714 50.1833 927.464 51.85 927.464 53.95ZM923.714 54.15C923.714 53.1167 923.297 52.2833 922.464 51.65C921.631 51.05 920.181 50.75 918.114 50.75H909.164C907.431 51.45 906.564 52.6167 906.564 54.25C906.564 55.3833 907.014 56.35 907.914 57.15C908.814 57.9833 910.314 58.4 912.414 58.4H916.314C918.647 58.4 920.464 58.0333 921.764 57.3C923.064 56.6 923.714 55.55 923.714 54.15ZM914.264 39.3C916.264 39.3 917.731 38.8333 918.664 37.9C919.631 36.9667 920.114 35.7333 920.114 34.2V32.75C920.114 31.2167 919.631 30 918.664 29.1C917.731 28.1667 916.264 27.7 914.264 27.7C912.264 27.7 910.797 28.1667 909.864 29.1C908.931 30 908.464 31.2167 908.464 32.75V34.2C908.464 35.7333 908.931 36.9667 909.864 37.9C910.797 38.8333 912.264 39.3 914.264 39.3ZM933.245 47.6H940.795V28.6H933.245V25.2H944.795V31.7H945.045C945.578 29.6667 946.578 28.0833 948.045 26.95C949.545 25.7833 951.445 25.2 953.745 25.2H957.345V29.2H952.495C950.195 29.2 948.328 29.8667 946.895 31.2C945.495 32.5333 944.795 34.2833 944.795 36.45V47.6H954.795V51H933.245V47.6ZM984.125 51C982.558 51 981.442 50.6 980.775 49.8C980.108 49 979.692 48 979.525 46.8H979.275C978.708 48.3 977.792 49.4833 976.525 50.35C975.292 51.1833 973.625 51.6 971.525 51.6C968.825 51.6 966.675 50.9 965.075 49.5C963.475 48.1 962.675 46.1833 962.675 43.75C962.675 41.35 963.542 39.5 965.275 38.2C967.042 36.9 969.875 36.25 973.775 36.25H979.275V33.7C979.275 31.8 978.742 30.3833 977.675 29.45C976.608 28.4833 975.092 28 973.125 28C971.392 28 969.975 28.35 968.875 29.05C967.775 29.7167 966.892 30.6333 966.225 31.8L963.525 29.8C963.858 29.1333 964.308 28.4833 964.875 27.85C965.442 27.2167 966.142 26.6667 966.975 26.2C967.808 25.7 968.758 25.3167 969.825 25.05C970.892 24.75 972.075 24.6 973.375 24.6C976.408 24.6 978.808 25.3667 980.575 26.9C982.375 28.4333 983.275 30.5667 983.275 33.3V47.5H986.875V51H984.125ZM972.225 48.25C973.258 48.25 974.192 48.1333 975.025 47.9C975.892 47.6333 976.642 47.3 977.275 46.9C977.908 46.4667 978.392 45.9667 978.725 45.4C979.092 44.8 979.275 44.1667 979.275 43.5V39.25H973.775C971.375 39.25 969.625 39.5833 968.525 40.25C967.425 40.9167 966.875 41.8833 966.875 43.15V44.2C966.875 45.5333 967.342 46.55 968.275 47.25C969.242 47.9167 970.558 48.25 972.225 48.25ZM994.255 51V25.2H998.255V29.4H998.455C998.722 28.7667 999.055 28.1667 999.455 27.6C999.855 27 1000.34 26.4833 1000.91 26.05C1001.51 25.6167 1002.21 25.2667 1003.01 25C1003.81 24.7333 1004.74 24.6 1005.81 24.6C1008.51 24.6 1010.67 25.4667 1012.31 27.2C1013.94 28.9 1014.76 31.3167 1014.76 34.45V51H1010.76V35.15C1010.76 32.7833 1010.24 31.0333 1009.21 29.9C1008.17 28.7333 1006.66 28.15 1004.66 28.15C1003.86 28.15 1003.07 28.25 1002.31 28.45C1001.54 28.65 1000.86 28.95 1000.26 29.35C999.655 29.75 999.172 30.2667 998.805 30.9C998.439 31.5333 998.255 32.2667 998.255 33.1V51H994.255ZM1035.59 51C1033.62 51 1032.17 50.45 1031.24 49.35C1030.34 48.25 1029.89 46.8333 1029.89 45.1V28.6H1021.29V25.2H1027.69C1028.55 25.2 1029.15 25.0333 1029.49 24.7C1029.85 24.3333 1030.04 23.7167 1030.04 22.85V16.1H1033.89V25.2H1045.64V28.6H1033.89V47.6H1045.64V51H1035.59ZM1064.62 51.6C1061.92 51.6 1059.58 51.15 1057.62 50.25C1055.68 49.3167 1054.03 48.0833 1052.67 46.55L1055.37 44.2C1056.6 45.5 1057.95 46.5 1059.42 47.2C1060.88 47.9 1062.65 48.25 1064.72 48.25C1066.72 48.25 1068.35 47.9 1069.62 47.2C1070.92 46.4667 1071.57 45.3333 1071.57 43.8C1071.57 43.1333 1071.43 42.5833 1071.17 42.15C1070.93 41.6833 1070.6 41.3167 1070.17 41.05C1069.73 40.7833 1069.25 40.5833 1068.72 40.45C1068.18 40.2833 1067.62 40.15 1067.02 40.05L1062.97 39.45C1062.07 39.3167 1061.08 39.1333 1060.02 38.9C1058.98 38.6667 1058.03 38.3 1057.17 37.8C1056.3 37.2667 1055.57 36.5667 1054.97 35.7C1054.4 34.8333 1054.12 33.7 1054.12 32.3C1054.12 31 1054.37 29.8833 1054.87 28.95C1055.4 27.9833 1056.13 27.1833 1057.07 26.55C1058 25.8833 1059.1 25.4 1060.37 25.1C1061.63 24.7667 1063.02 24.6 1064.52 24.6C1066.85 24.6 1068.87 24.9667 1070.57 25.7C1072.3 26.4333 1073.78 27.45 1075.02 28.75L1072.42 31.2C1072.12 30.8333 1071.73 30.4667 1071.27 30.1C1070.83 29.7 1070.28 29.35 1069.62 29.05C1068.98 28.7167 1068.23 28.45 1067.37 28.25C1066.5 28.05 1065.5 27.95 1064.37 27.95C1062.33 27.95 1060.77 28.3 1059.67 29C1058.6 29.7 1058.07 30.7167 1058.07 32.05C1058.07 32.7167 1058.18 33.2833 1058.42 33.75C1058.68 34.1833 1059.03 34.5333 1059.47 34.8C1059.9 35.0667 1060.38 35.2833 1060.92 35.45C1061.48 35.5833 1062.05 35.7 1062.62 35.8L1066.67 36.4C1067.6 36.5333 1068.58 36.7167 1069.62 36.95C1070.65 37.1833 1071.6 37.5667 1072.47 38.1C1073.33 38.6 1074.05 39.2833 1074.62 40.15C1075.22 41.0167 1075.52 42.15 1075.52 43.55C1075.52 46.1167 1074.52 48.1 1072.52 49.5C1070.55 50.9 1067.92 51.6 1064.62 51.6ZM1087.05 37.9V33.7H1101.55V37.9H1087.05ZM1130.53 46.8H1130.33C1128.66 50 1126.01 51.6 1122.38 51.6C1119.21 51.6 1116.73 50.4167 1114.93 48.05C1113.16 45.6833 1112.28 42.3667 1112.28 38.1C1112.28 33.8333 1113.16 30.5167 1114.93 28.15C1116.73 25.7833 1119.21 24.6 1122.38 24.6C1126.01 24.6 1128.66 26.2 1130.33 29.4H1130.53V14H1134.53V51H1130.53V46.8ZM1123.93 48.05C1124.83 48.05 1125.68 47.9333 1126.48 47.7C1127.28 47.4667 1127.98 47.1333 1128.58 46.7C1129.18 46.2333 1129.64 45.6833 1129.98 45.05C1130.34 44.3833 1130.53 43.6167 1130.53 42.75V33.45C1130.53 32.5833 1130.34 31.8333 1129.98 31.2C1129.64 30.5333 1129.18 29.9833 1128.58 29.55C1127.98 29.0833 1127.28 28.7333 1126.48 28.5C1125.68 28.2667 1124.83 28.15 1123.93 28.15C1121.59 28.15 1119.78 28.8667 1118.48 30.3C1117.21 31.7 1116.58 33.5667 1116.58 35.9V40.3C1116.58 42.6333 1117.21 44.5167 1118.48 45.95C1119.78 47.35 1121.59 48.05 1123.93 48.05ZM1164.01 51C1162.44 51 1161.32 50.6 1160.66 49.8C1159.99 49 1159.57 48 1159.41 46.8H1159.16C1158.59 48.3 1157.67 49.4833 1156.41 50.35C1155.17 51.1833 1153.51 51.6 1151.41 51.6C1148.71 51.6 1146.56 50.9 1144.96 49.5C1143.36 48.1 1142.56 46.1833 1142.56 43.75C1142.56 41.35 1143.42 39.5 1145.16 38.2C1146.92 36.9 1149.76 36.25 1153.66 36.25H1159.16V33.7C1159.16 31.8 1158.62 30.3833 1157.56 29.45C1156.49 28.4833 1154.97 28 1153.01 28C1151.27 28 1149.86 28.35 1148.76 29.05C1147.66 29.7167 1146.77 30.6333 1146.11 31.8L1143.41 29.8C1143.74 29.1333 1144.19 28.4833 1144.76 27.85C1145.32 27.2167 1146.02 26.6667 1146.86 26.2C1147.69 25.7 1148.64 25.3167 1149.71 25.05C1150.77 24.75 1151.96 24.6 1153.26 24.6C1156.29 24.6 1158.69 25.3667 1160.46 26.9C1162.26 28.4333 1163.16 30.5667 1163.16 33.3V47.5H1166.76V51H1164.01ZM1152.11 48.25C1153.14 48.25 1154.07 48.1333 1154.91 47.9C1155.77 47.6333 1156.52 47.3 1157.16 46.9C1157.79 46.4667 1158.27 45.9667 1158.61 45.4C1158.97 44.8 1159.16 44.1667 1159.16 43.5V39.25H1153.66C1151.26 39.25 1149.51 39.5833 1148.41 40.25C1147.31 40.9167 1146.76 41.8833 1146.76 43.15V44.2C1146.76 45.5333 1147.22 46.55 1148.16 47.25C1149.12 47.9167 1150.44 48.25 1152.11 48.25ZM1185.49 51C1183.52 51 1182.07 50.45 1181.14 49.35C1180.24 48.25 1179.79 46.8333 1179.79 45.1V28.6H1171.19V25.2H1177.59C1178.45 25.2 1179.05 25.0333 1179.39 24.7C1179.75 24.3333 1179.94 23.7167 1179.94 22.85V16.1H1183.79V25.2H1195.54V28.6H1183.79V47.6H1195.54V51H1185.49ZM1223.97 51C1222.4 51 1221.29 50.6 1220.62 49.8C1219.95 49 1219.54 48 1219.37 46.8H1219.12C1218.55 48.3 1217.64 49.4833 1216.37 50.35C1215.14 51.1833 1213.47 51.6 1211.37 51.6C1208.67 51.6 1206.52 50.9 1204.92 49.5C1203.32 48.1 1202.52 46.1833 1202.52 43.75C1202.52 41.35 1203.39 39.5 1205.12 38.2C1206.89 36.9 1209.72 36.25 1213.62 36.25H1219.12V33.7C1219.12 31.8 1218.59 30.3833 1217.52 29.45C1216.45 28.4833 1214.94 28 1212.97 28C1211.24 28 1209.82 28.35 1208.72 29.05C1207.62 29.7167 1206.74 30.6333 1206.07 31.8L1203.37 29.8C1203.7 29.1333 1204.15 28.4833 1204.72 27.85C1205.29 27.2167 1205.99 26.6667 1206.82 26.2C1207.65 25.7 1208.6 25.3167 1209.67 25.05C1210.74 24.75 1211.92 24.6 1213.22 24.6C1216.25 24.6 1218.65 25.3667 1220.42 26.9C1222.22 28.4333 1223.12 30.5667 1223.12 33.3V47.5H1226.72V51H1223.97ZM1212.07 48.25C1213.1 48.25 1214.04 48.1333 1214.87 47.9C1215.74 47.6333 1216.49 47.3 1217.12 46.9C1217.75 46.4667 1218.24 45.9667 1218.57 45.4C1218.94 44.8 1219.12 44.1667 1219.12 43.5V39.25H1213.62C1211.22 39.25 1209.47 39.5833 1208.37 40.25C1207.27 40.9167 1206.72 41.8833 1206.72 43.15V44.2C1206.72 45.5333 1207.19 46.55 1208.12 47.25C1209.09 47.9167 1210.4 48.25 1212.07 48.25ZM1244.2 51.45C1242.83 51.45 1241.87 51.1667 1241.3 50.6C1240.77 50.0333 1240.5 49.3167 1240.5 48.45V47.55C1240.5 46.6833 1240.77 45.9667 1241.3 45.4C1241.87 44.8333 1242.83 44.55 1244.2 44.55C1245.57 44.55 1246.52 44.8333 1247.05 45.4C1247.62 45.9667 1247.9 46.6833 1247.9 47.55V48.45C1247.9 49.3167 1247.62 50.0333 1247.05 50.6C1246.52 51.1667 1245.57 51.45 1244.2 51.45ZM1275.08 51.6C1273.21 51.6 1271.55 51.2833 1270.08 50.65C1268.65 49.9833 1267.43 49.0667 1266.43 47.9C1265.43 46.7333 1264.66 45.3167 1264.13 43.65C1263.63 41.9833 1263.38 40.1333 1263.38 38.1C1263.38 36.0667 1263.65 34.2167 1264.18 32.55C1264.71 30.8833 1265.48 29.4667 1266.48 28.3C1267.48 27.1 1268.7 26.1833 1270.13 25.55C1271.56 24.9167 1273.2 24.6 1275.03 24.6C1277.53 24.6 1279.56 25.15 1281.13 26.25C1282.7 27.35 1283.85 28.7833 1284.58 30.55L1281.38 32.25C1280.91 30.9167 1280.13 29.8833 1279.03 29.15C1277.96 28.4167 1276.63 28.05 1275.03 28.05C1273.86 28.05 1272.81 28.25 1271.88 28.65C1270.98 29.0167 1270.21 29.55 1269.58 30.25C1268.95 30.95 1268.46 31.7833 1268.13 32.75C1267.83 33.7167 1267.68 34.7667 1267.68 35.9V40.3C1267.68 41.4333 1267.83 42.4833 1268.13 43.45C1268.46 44.4167 1268.95 45.25 1269.58 45.95C1270.21 46.65 1271 47.2 1271.93 47.6C1272.86 47.9667 1273.93 48.15 1275.13 48.15C1276.86 48.15 1278.3 47.75 1279.43 46.95C1280.56 46.15 1281.46 45.05 1282.13 43.65L1284.98 45.6C1284.21 47.3333 1283.01 48.7667 1281.38 49.9C1279.78 51.0333 1277.68 51.6 1275.08 51.6ZM1304.46 51.6C1301.76 51.6 1299.43 51.15 1297.46 50.25C1295.53 49.3167 1293.88 48.0833 1292.51 46.55L1295.21 44.2C1296.44 45.5 1297.79 46.5 1299.26 47.2C1300.73 47.9 1302.49 48.25 1304.56 48.25C1306.56 48.25 1308.19 47.9 1309.46 47.2C1310.76 46.4667 1311.41 45.3333 1311.41 43.8C1311.41 43.1333 1311.28 42.5833 1311.01 42.15C1310.78 41.6833 1310.44 41.3167 1310.01 41.05C1309.58 40.7833 1309.09 40.5833 1308.56 40.45C1308.03 40.2833 1307.46 40.15 1306.86 40.05L1302.81 39.45C1301.91 39.3167 1300.93 39.1333 1299.86 38.9C1298.83 38.6667 1297.88 38.3 1297.01 37.8C1296.14 37.2667 1295.41 36.5667 1294.81 35.7C1294.24 34.8333 1293.96 33.7 1293.96 32.3C1293.96 31 1294.21 29.8833 1294.71 28.95C1295.24 27.9833 1295.98 27.1833 1296.91 26.55C1297.84 25.8833 1298.94 25.4 1300.21 25.1C1301.48 24.7667 1302.86 24.6 1304.36 24.6C1306.69 24.6 1308.71 24.9667 1310.41 25.7C1312.14 26.4333 1313.63 27.45 1314.86 28.75L1312.26 31.2C1311.96 30.8333 1311.58 30.4667 1311.11 30.1C1310.68 29.7 1310.13 29.35 1309.46 29.05C1308.83 28.7167 1308.08 28.45 1307.21 28.25C1306.34 28.05 1305.34 27.95 1304.21 27.95C1302.18 27.95 1300.61 28.3 1299.51 29C1298.44 29.7 1297.91 30.7167 1297.91 32.05C1297.91 32.7167 1298.03 33.2833 1298.26 33.75C1298.53 34.1833 1298.88 34.5333 1299.31 34.8C1299.74 35.0667 1300.23 35.2833 1300.76 35.45C1301.33 35.5833 1301.89 35.7 1302.46 35.8L1306.51 36.4C1307.44 36.5333 1308.43 36.7167 1309.46 36.95C1310.49 37.1833 1311.44 37.5667 1312.31 38.1C1313.18 38.6 1313.89 39.2833 1314.46 40.15C1315.06 41.0167 1315.36 42.15 1315.36 43.55C1315.36 46.1167 1314.36 48.1 1312.36 49.5C1310.39 50.9 1307.76 51.6 1304.46 51.6ZM1331.59 51L1322.34 25.2H1326.39L1330.09 36L1334.09 47.65H1334.29L1338.29 36L1341.99 25.2H1345.94L1336.69 51H1331.59ZM1357.27 14H1363.72L1357.97 27.85H1354.62L1357.27 14ZM1369.22 14H1375.67L1369.92 27.85H1366.57L1369.22 14ZM1398.85 35.45C1398.85 37.8833 1398.57 40.2333 1398 42.5C1397.47 44.7333 1396.72 46.8167 1395.75 48.75C1394.82 50.6833 1393.72 52.4333 1392.45 54C1391.18 55.5667 1389.85 56.8667 1388.45 57.9H1384.4C1385.83 56.8 1387.2 55.5167 1388.5 54.05C1389.8 52.6167 1390.93 51.05 1391.9 49.35C1392.9 47.6167 1393.68 45.7667 1394.25 43.8C1394.82 41.8 1395.1 39.7333 1395.1 37.6V33.3C1395.1 31.1667 1394.82 29.1167 1394.25 27.15C1393.68 25.15 1392.9 23.3 1391.9 21.6C1390.93 19.8667 1389.8 18.2833 1388.5 16.85C1387.2 15.3833 1385.83 14.1 1384.4 13H1388.45C1389.85 14.0667 1391.18 15.3833 1392.45 16.95C1393.72 18.4833 1394.82 20.2167 1395.75 22.15C1396.72 24.0833 1397.47 26.1833 1398 28.45C1398.57 30.6833 1398.85 33.0167 1398.85 35.45Z" fill="black"/>
<path d="M364.016 39.2V32.3L385.516 20.8V27.7L370.666 35.55V35.95L385.516 43.8V50.7L364.016 39.2ZM396.746 39.3V32.2H412.746V39.3H396.746Z" fill="#FF7400"/>
</svg>
