<svg width="1410" height="269" viewBox="0 0 1410 269" fill="none" xmlns="http://www.w3.org/2000/svg">
<path d="M28.05 53.95C28.05 56.55 26.9667 58.4667 24.8 59.7C22.6333 60.9667 19.3833 61.6 15.05 61.6C10.8833 61.6 7.88333 61.05 6.05 59.95C4.25 58.85 3.35 57.2667 3.35 55.2C3.35 53.8 3.71667 52.7167 4.45 51.95C5.18333 51.1833 6.21667 50.6167 7.55 50.25V49.65C6.81667 49.2833 6.25 48.8167 5.85 48.25C5.45 47.6833 5.25 46.9667 5.25 46.1C5.25 44.7667 5.68333 43.7667 6.55 43.1C7.45 42.4333 8.56667 41.9333 9.9 41.6V41.4C8.3 40.7 7.05 39.6667 6.15 38.3C5.28333 36.9333 4.85 35.3333 4.85 33.5C4.85 32.2 5.08333 31 5.55 29.9C6.01667 28.8 6.68333 27.8667 7.55 27.1C8.45 26.3 9.51667 25.6833 10.75 25.25C11.9833 24.8167 13.35 24.6 14.85 24.6C16.7833 24.6 18.4833 24.95 19.95 25.65V25.2C19.95 24.2 20.1833 23.3667 20.65 22.7C21.1167 22.0333 21.9167 21.7 23.05 21.7H27.8V25.2H22V26.95C22.9333 27.75 23.65 28.7 24.15 29.8C24.65 30.9 24.9 32.1333 24.9 33.5C24.9 34.8 24.65 36 24.15 37.1C23.6833 38.2 23.0167 39.15 22.15 39.95C21.2833 40.7167 20.2167 41.3167 18.95 41.75C17.7167 42.1833 16.35 42.4 14.85 42.4C14.4167 42.4 14 42.3833 13.6 42.35C13.2 42.3167 12.8 42.2667 12.4 42.2C12 42.2667 11.5833 42.3833 11.15 42.55C10.7167 42.6833 10.3167 42.8833 9.95 43.15C9.58333 43.3833 9.28333 43.6667 9.05 44C8.81667 44.3333 8.7 44.7167 8.7 45.15C8.7 45.9167 9.08333 46.4333 9.85 46.7C10.6167 46.9333 11.6167 47.05 12.85 47.05H18.55C21.8833 47.05 24.3 47.6833 25.8 48.95C27.3 50.1833 28.05 51.85 28.05 53.95ZM24.3 54.15C24.3 53.1167 23.8833 52.2833 23.05 51.65C22.2167 51.05 20.7667 50.75 18.7 50.75H9.75C8.01667 51.45 7.15 52.6167 7.15 54.25C7.15 55.3833 7.6 56.35 8.5 57.15C9.4 57.9833 10.9 58.4 13 58.4H16.9C19.2333 58.4 21.05 58.0333 22.35 57.3C23.65 56.6 24.3 55.55 24.3 54.15ZM14.85 39.3C16.85 39.3 18.3167 38.8333 19.25 37.9C20.2167 36.9667 20.7 35.7333 20.7 34.2V32.75C20.7 31.2167 20.2167 30 19.25 29.1C18.3167 28.1667 16.85 27.7 14.85 27.7C12.85 27.7 11.3833 28.1667 10.45 29.1C9.51667 30 9.05 31.2167 9.05 32.75V34.2C9.05 35.7333 9.51667 36.9667 10.45 37.9C11.3833 38.8333 12.85 39.3 14.85 39.3ZM33.8305 47.6H41.3805V28.6H33.8305V25.2H45.3805V31.7H45.6305C46.1638 29.6667 47.1638 28.0833 48.6305 26.95C50.1305 25.7833 52.0305 25.2 54.3305 25.2H57.9305V29.2H53.0805C50.7805 29.2 48.9138 29.8667 47.4805 31.2C46.0805 32.5333 45.3805 34.2833 45.3805 36.45V47.6H55.3805V51H33.8305V47.6ZM84.7109 51C83.1443 51 82.0276 50.6 81.3609 49.8C80.6943 49 80.2776 48 80.1109 46.8H79.8609C79.2943 48.3 78.3776 49.4833 77.1109 50.35C75.8776 51.1833 74.2109 51.6 72.1109 51.6C69.4109 51.6 67.2609 50.9 65.6609 49.5C64.0609 48.1 63.2609 46.1833 63.2609 43.75C63.2609 41.35 64.1276 39.5 65.8609 38.2C67.6276 36.9 70.4609 36.25 74.3609 36.25H79.8609V33.7C79.8609 31.8 79.3276 30.3833 78.2609 29.45C77.1943 28.4833 75.6776 28 73.7109 28C71.9776 28 70.5609 28.35 69.4609 29.05C68.3609 29.7167 67.4776 30.6333 66.8109 31.8L64.1109 29.8C64.4443 29.1333 64.8943 28.4833 65.4609 27.85C66.0276 27.2167 66.7276 26.6667 67.5609 26.2C68.3943 25.7 69.3443 25.3167 70.4109 25.05C71.4776 24.75 72.6609 24.6 73.9609 24.6C76.9943 24.6 79.3943 25.3667 81.1609 26.9C82.9609 28.4333 83.8609 30.5667 83.8609 33.3V47.5H87.4609V51H84.7109ZM72.8109 48.25C73.8443 48.25 74.7776 48.1333 75.6109 47.9C76.4776 47.6333 77.2276 47.3 77.8609 46.9C78.4943 46.4667 78.9776 45.9667 79.3109 45.4C79.6776 44.8 79.8609 44.1667 79.8609 43.5V39.25H74.3609C71.9609 39.25 70.2109 39.5833 69.1109 40.25C68.0109 40.9167 67.4609 41.8833 67.4609 43.15V44.2C67.4609 45.5333 67.9276 46.55 68.8609 47.25C69.8276 47.9167 71.1443 48.25 72.8109 48.25ZM94.8414 51V25.2H98.8414V29.4H99.0414C99.3081 28.7667 99.6414 28.1667 100.041 27.6C100.441 27 100.925 26.4833 101.491 26.05C102.091 25.6167 102.791 25.2667 103.591 25C104.391 24.7333 105.325 24.6 106.391 24.6C109.091 24.6 111.258 25.4667 112.891 27.2C114.525 28.9 115.341 31.3167 115.341 34.45V51H111.341V35.15C111.341 32.7833 110.825 31.0333 109.791 29.9C108.758 28.7333 107.241 28.15 105.241 28.15C104.441 28.15 103.658 28.25 102.891 28.45C102.125 28.65 101.441 28.95 100.841 29.35C100.241 29.75 99.7581 30.2667 99.3914 30.9C99.0247 31.5333 98.8414 32.2667 98.8414 33.1V51H94.8414ZM136.172 51C134.205 51 132.755 50.45 131.822 49.35C130.922 48.25 130.472 46.8333 130.472 45.1V28.6H121.872V25.2H128.272C129.139 25.2 129.739 25.0333 130.072 24.7C130.439 24.3333 130.622 23.7167 130.622 22.85V16.1H134.472V25.2H146.222V28.6H134.472V47.6H146.222V51H136.172ZM165.202 51.6C162.502 51.6 160.169 51.15 158.202 50.25C156.269 49.3167 154.619 48.0833 153.252 46.55L155.952 44.2C157.186 45.5 158.536 46.5 160.002 47.2C161.469 47.9 163.236 48.25 165.302 48.25C167.302 48.25 168.936 47.9 170.202 47.2C171.502 46.4667 172.152 45.3333 172.152 43.8C172.152 43.1333 172.019 42.5833 171.752 42.15C171.519 41.6833 171.186 41.3167 170.752 41.05C170.319 40.7833 169.836 40.5833 169.302 40.45C168.769 40.2833 168.202 40.15 167.602 40.05L163.552 39.45C162.652 39.3167 161.669 39.1333 160.602 38.9C159.569 38.6667 158.619 38.3 157.752 37.8C156.886 37.2667 156.152 36.5667 155.552 35.7C154.986 34.8333 154.702 33.7 154.702 32.3C154.702 31 154.952 29.8833 155.452 28.95C155.986 27.9833 156.719 27.1833 157.652 26.55C158.586 25.8833 159.686 25.4 160.952 25.1C162.219 24.7667 163.602 24.6 165.102 24.6C167.436 24.6 169.452 24.9667 171.152 25.7C172.886 26.4333 174.369 27.45 175.602 28.75L173.002 31.2C172.702 30.8333 172.319 30.4667 171.852 30.1C171.419 29.7 170.869 29.35 170.202 29.05C169.569 28.7167 168.819 28.45 167.952 28.25C167.086 28.05 166.086 27.95 164.952 27.95C162.919 27.95 161.352 28.3 160.252 29C159.186 29.7 158.652 30.7167 158.652 32.05C158.652 32.7167 158.769 33.2833 159.002 33.75C159.269 34.1833 159.619 34.5333 160.052 34.8C160.486 35.0667 160.969 35.2833 161.502 35.45C162.069 35.5833 162.636 35.7 163.202 35.8L167.252 36.4C168.186 36.5333 169.169 36.7167 170.202 36.95C171.236 37.1833 172.186 37.5667 173.052 38.1C173.919 38.6 174.636 39.2833 175.202 40.15C175.802 41.0167 176.102 42.15 176.102 43.55C176.102 46.1167 175.102 48.1 173.102 49.5C171.136 50.9 168.502 51.6 165.202 51.6ZM182.883 59.45V55.75H206.883V59.45H182.883ZM231.113 46.8H230.913C229.247 50 226.597 51.6 222.963 51.6C219.797 51.6 217.313 50.4167 215.513 48.05C213.747 45.6833 212.863 42.3667 212.863 38.1C212.863 33.8333 213.747 30.5167 215.513 28.15C217.313 25.7833 219.797 24.6 222.963 24.6C226.597 24.6 229.247 26.2 230.913 29.4H231.113V14H235.113V51H231.113V46.8ZM224.513 48.05C225.413 48.05 226.263 47.9333 227.063 47.7C227.863 47.4667 228.563 47.1333 229.163 46.7C229.763 46.2333 230.23 45.6833 230.563 45.05C230.93 44.3833 231.113 43.6167 231.113 42.75V33.45C231.113 32.5833 230.93 31.8333 230.563 31.2C230.23 30.5333 229.763 29.9833 229.163 29.55C228.563 29.0833 227.863 28.7333 227.063 28.5C226.263 28.2667 225.413 28.15 224.513 28.15C222.18 28.15 220.363 28.8667 219.063 30.3C217.797 31.7 217.163 33.5667 217.163 35.9V40.3C217.163 42.6333 217.797 44.5167 219.063 45.95C220.363 47.35 222.18 48.05 224.513 48.05ZM264.594 51C263.027 51 261.91 50.6 261.244 49.8C260.577 49 260.16 48 259.994 46.8H259.744C259.177 48.3 258.26 49.4833 256.994 50.35C255.76 51.1833 254.094 51.6 251.994 51.6C249.294 51.6 247.144 50.9 245.544 49.5C243.944 48.1 243.144 46.1833 243.144 43.75C243.144 41.35 244.01 39.5 245.744 38.2C247.51 36.9 250.344 36.25 254.244 36.25H259.744V33.7C259.744 31.8 259.21 30.3833 258.144 29.45C257.077 28.4833 255.56 28 253.594 28C251.86 28 250.444 28.35 249.344 29.05C248.244 29.7167 247.36 30.6333 246.694 31.8L243.994 29.8C244.327 29.1333 244.777 28.4833 245.344 27.85C245.91 27.2167 246.61 26.6667 247.444 26.2C248.277 25.7 249.227 25.3167 250.294 25.05C251.36 24.75 252.544 24.6 253.844 24.6C256.877 24.6 259.277 25.3667 261.044 26.9C262.844 28.4333 263.744 30.5667 263.744 33.3V47.5H267.344V51H264.594ZM252.694 48.25C253.727 48.25 254.66 48.1333 255.494 47.9C256.36 47.6333 257.11 47.3 257.744 46.9C258.377 46.4667 258.86 45.9667 259.194 45.4C259.56 44.8 259.744 44.1667 259.744 43.5V39.25H254.244C251.844 39.25 250.094 39.5833 248.994 40.25C247.894 40.9167 247.344 41.8833 247.344 43.15V44.2C247.344 45.5333 247.81 46.55 248.744 47.25C249.71 47.9167 251.027 48.25 252.694 48.25ZM286.074 51C284.108 51 282.658 50.45 281.724 49.35C280.824 48.25 280.374 46.8333 280.374 45.1V28.6H271.774V25.2H278.174C279.041 25.2 279.641 25.0333 279.974 24.7C280.341 24.3333 280.524 23.7167 280.524 22.85V16.1H284.374V25.2H296.124V28.6H284.374V47.6H296.124V51H286.074ZM324.555 51C322.988 51 321.871 50.6 321.205 49.8C320.538 49 320.121 48 319.955 46.8H319.705C319.138 48.3 318.221 49.4833 316.955 50.35C315.721 51.1833 314.055 51.6 311.955 51.6C309.255 51.6 307.105 50.9 305.505 49.5C303.905 48.1 303.105 46.1833 303.105 43.75C303.105 41.35 303.971 39.5 305.705 38.2C307.471 36.9 310.305 36.25 314.205 36.25H319.705V33.7C319.705 31.8 319.171 30.3833 318.105 29.45C317.038 28.4833 315.521 28 313.555 28C311.821 28 310.405 28.35 309.305 29.05C308.205 29.7167 307.321 30.6333 306.655 31.8L303.955 29.8C304.288 29.1333 304.738 28.4833 305.305 27.85C305.871 27.2167 306.571 26.6667 307.405 26.2C308.238 25.7 309.188 25.3167 310.255 25.05C311.321 24.75 312.505 24.6 313.805 24.6C316.838 24.6 319.238 25.3667 321.005 26.9C322.805 28.4333 323.705 30.5667 323.705 33.3V47.5H327.305V51H324.555ZM312.655 48.25C313.688 48.25 314.621 48.1333 315.455 47.9C316.321 47.6333 317.071 47.3 317.705 46.9C318.338 46.4667 318.821 45.9667 319.155 45.4C319.521 44.8 319.705 44.1667 319.705 43.5V39.25H314.205C311.805 39.25 310.055 39.5833 308.955 40.25C307.855 40.9167 307.305 41.8833 307.305 43.15V44.2C307.305 45.5333 307.771 46.55 308.705 47.25C309.671 47.9167 310.988 48.25 312.655 48.25Z" fill="#6CABDD"/>
<path d="M364.016 37.75V33.75L385.516 21.3V25.45L367.766 35.5V35.9L385.516 45.95V50.2L364.016 37.75ZM397.496 37.9V33.7H411.996V37.9H397.496ZM699.801 35.45C699.801 33.0167 700.067 30.6833 700.601 28.45C701.167 26.1833 701.917 24.0833 702.851 22.15C703.817 20.2167 704.934 18.4833 706.201 16.95C707.467 15.3833 708.801 14.0667 710.201 13H714.251C712.784 14.1 711.401 15.3833 710.101 16.85C708.834 18.2833 707.701 19.8667 706.701 21.6C705.734 23.3 704.967 25.15 704.401 27.15C703.834 29.1167 703.551 31.1667 703.551 33.3V37.6C703.551 39.7333 703.834 41.8 704.401 43.8C704.967 45.7667 705.734 47.6167 706.701 49.35C707.701 51.05 708.834 52.6167 710.101 54.05C711.401 55.5167 712.784 56.8 714.251 57.9H710.201C708.801 56.8667 707.467 55.5667 706.201 54C704.934 52.4333 703.817 50.6833 702.851 48.75C701.917 46.8167 701.167 44.7333 700.601 42.5C700.067 40.2333 699.801 37.8833 699.801 35.45ZM729.381 14H732.731L730.081 27.85H723.631L729.381 14ZM741.331 14H744.681L742.031 27.85H735.581L741.331 14ZM770.762 46.8H770.562C768.895 50 766.245 51.6 762.612 51.6C759.445 51.6 756.962 50.4167 755.162 48.05C753.395 45.6833 752.512 42.3667 752.512 38.1C752.512 33.8333 753.395 30.5167 755.162 28.15C756.962 25.7833 759.445 24.6 762.612 24.6C766.245 24.6 768.895 26.2 770.562 29.4H770.762V14H774.762V51H770.762V46.8ZM764.162 48.05C765.062 48.05 765.912 47.9333 766.712 47.7C767.512 47.4667 768.212 47.1333 768.812 46.7C769.412 46.2333 769.878 45.6833 770.212 45.05C770.578 44.3833 770.762 43.6167 770.762 42.75V33.45C770.762 32.5833 770.578 31.8333 770.212 31.2C769.878 30.5333 769.412 29.9833 768.812 29.55C768.212 29.0833 767.512 28.7333 766.712 28.5C765.912 28.2667 765.062 28.15 764.162 28.15C761.828 28.15 760.012 28.8667 758.712 30.3C757.445 31.7 756.812 33.5667 756.812 35.9V40.3C756.812 42.6333 757.445 44.5167 758.712 45.95C760.012 47.35 761.828 48.05 764.162 48.05ZM804.242 51C802.676 51 801.559 50.6 800.892 49.8C800.226 49 799.809 48 799.642 46.8H799.392C798.826 48.3 797.909 49.4833 796.642 50.35C795.409 51.1833 793.742 51.6 791.642 51.6C788.942 51.6 786.792 50.9 785.192 49.5C783.592 48.1 782.792 46.1833 782.792 43.75C782.792 41.35 783.659 39.5 785.392 38.2C787.159 36.9 789.992 36.25 793.892 36.25H799.392V33.7C799.392 31.8 798.859 30.3833 797.792 29.45C796.726 28.4833 795.209 28 793.242 28C791.509 28 790.092 28.35 788.992 29.05C787.892 29.7167 787.009 30.6333 786.342 31.8L783.642 29.8C783.976 29.1333 784.426 28.4833 784.992 27.85C785.559 27.2167 786.259 26.6667 787.092 26.2C787.926 25.7 788.876 25.3167 789.942 25.05C791.009 24.75 792.192 24.6 793.492 24.6C796.526 24.6 798.926 25.3667 800.692 26.9C802.492 28.4333 803.392 30.5667 803.392 33.3V47.5H806.992V51H804.242ZM792.342 48.25C793.376 48.25 794.309 48.1333 795.142 47.9C796.009 47.6333 796.759 47.3 797.392 46.9C798.026 46.4667 798.509 45.9667 798.842 45.4C799.209 44.8 799.392 44.1667 799.392 43.5V39.25H793.892C791.492 39.25 789.742 39.5833 788.642 40.25C787.542 40.9167 786.992 41.8833 786.992 43.15V44.2C786.992 45.5333 787.459 46.55 788.392 47.25C789.359 47.9167 790.676 48.25 792.342 48.25ZM825.723 51C823.756 51 822.306 50.45 821.373 49.35C820.473 48.25 820.023 46.8333 820.023 45.1V28.6H811.423V25.2H817.823C818.689 25.2 819.289 25.0333 819.623 24.7C819.989 24.3333 820.173 23.7167 820.173 22.85V16.1H824.023V25.2H835.773V28.6H824.023V47.6H835.773V51H825.723ZM864.203 51C862.636 51 861.52 50.6 860.853 49.8C860.186 49 859.77 48 859.603 46.8H859.353C858.786 48.3 857.87 49.4833 856.603 50.35C855.37 51.1833 853.703 51.6 851.603 51.6C848.903 51.6 846.753 50.9 845.153 49.5C843.553 48.1 842.753 46.1833 842.753 43.75C842.753 41.35 843.62 39.5 845.353 38.2C847.12 36.9 849.953 36.25 853.853 36.25H859.353V33.7C859.353 31.8 858.82 30.3833 857.753 29.45C856.686 28.4833 855.17 28 853.203 28C851.47 28 850.053 28.35 848.953 29.05C847.853 29.7167 846.97 30.6333 846.303 31.8L843.603 29.8C843.936 29.1333 844.386 28.4833 844.953 27.85C845.52 27.2167 846.22 26.6667 847.053 26.2C847.886 25.7 848.836 25.3167 849.903 25.05C850.97 24.75 852.153 24.6 853.453 24.6C856.486 24.6 858.886 25.3667 860.653 26.9C862.453 28.4333 863.353 30.5667 863.353 33.3V47.5H866.953V51H864.203ZM852.303 48.25C853.336 48.25 854.27 48.1333 855.103 47.9C855.97 47.6333 856.72 47.3 857.353 46.9C857.986 46.4667 858.47 45.9667 858.803 45.4C859.17 44.8 859.353 44.1667 859.353 43.5V39.25H853.853C851.453 39.25 849.703 39.5833 848.603 40.25C847.503 40.9167 846.953 41.8833 846.953 43.15V44.2C846.953 45.5333 847.42 46.55 848.353 47.25C849.32 47.9167 850.636 48.25 852.303 48.25ZM873.934 57.9L891.334 13H894.934L877.534 57.9H873.934ZM927.464 53.95C927.464 56.55 926.381 58.4667 924.214 59.7C922.047 60.9667 918.797 61.6 914.464 61.6C910.297 61.6 907.297 61.05 905.464 59.95C903.664 58.85 902.764 57.2667 902.764 55.2C902.764 53.8 903.131 52.7167 903.864 51.95C904.597 51.1833 905.631 50.6167 906.964 50.25V49.65C906.231 49.2833 905.664 48.8167 905.264 48.25C904.864 47.6833 904.664 46.9667 904.664 46.1C904.664 44.7667 905.097 43.7667 905.964 43.1C906.864 42.4333 907.981 41.9333 909.314 41.6V41.4C907.714 40.7 906.464 39.6667 905.564 38.3C904.697 36.9333 904.264 35.3333 904.264 33.5C904.264 32.2 904.497 31 904.964 29.9C905.431 28.8 906.097 27.8667 906.964 27.1C907.864 26.3 908.931 25.6833 910.164 25.25C911.397 24.8167 912.764 24.6 914.264 24.6C916.197 24.6 917.897 24.95 919.364 25.65V25.2C919.364 24.2 919.597 23.3667 920.064 22.7C920.531 22.0333 921.331 21.7 922.464 21.7H927.214V25.2H921.414V26.95C922.347 27.75 923.064 28.7 923.564 29.8C924.064 30.9 924.314 32.1333 924.314 33.5C924.314 34.8 924.064 36 923.564 37.1C923.097 38.2 922.431 39.15 921.564 39.95C920.697 40.7167 919.631 41.3167 918.364 41.75C917.131 42.1833 915.764 42.4 914.264 42.4C913.831 42.4 913.414 42.3833 913.014 42.35C912.614 42.3167 912.214 42.2667 911.814 42.2C911.414 42.2667 910.997 42.3833 910.564 42.55C910.131 42.6833 909.731 42.8833 909.364 43.15C908.997 43.3833 908.697 43.6667 908.464 44C908.231 44.3333 908.114 44.7167 908.114 45.15C908.114 45.9167 908.497 46.4333 909.264 46.7C910.031 46.9333 911.031 47.05 912.264 47.05H917.964C921.297 47.05 923.714 47.6833 925.214 48.95C926.714 50.1833 927.464 51.85 927.464 53.95ZM923.714 54.15C923.714 53.1167 923.297 52.2833 922.464 51.65C921.631 51.05 920.181 50.75 918.114 50.75H909.164C907.431 51.45 906.564 52.6167 906.564 54.25C906.564 55.3833 907.014 56.35 907.914 57.15C908.814 57.9833 910.314 58.4 912.414 58.4H916.314C918.647 58.4 920.464 58.0333 921.764 57.3C923.064 56.6 923.714 55.55 923.714 54.15ZM914.264 39.3C916.264 39.3 917.731 38.8333 918.664 37.9C919.631 36.9667 920.114 35.7333 920.114 34.2V32.75C920.114 31.2167 919.631 30 918.664 29.1C917.731 28.1667 916.264 27.7 914.264 27.7C912.264 27.7 910.797 28.1667 909.864 29.1C908.931 30 908.464 31.2167 908.464 32.75V34.2C908.464 35.7333 908.931 36.9667 909.864 37.9C910.797 38.8333 912.264 39.3 914.264 39.3ZM933.245 47.6H940.795V28.6H933.245V25.2H944.795V31.7H945.045C945.578 29.6667 946.578 28.0833 948.045 26.95C949.545 25.7833 951.445 25.2 953.745 25.2H957.345V29.2H952.495C950.195 29.2 948.328 29.8667 946.895 31.2C945.495 32.5333 944.795 34.2833 944.795 36.45V47.6H954.795V51H933.245V47.6ZM984.125 51C982.558 51 981.442 50.6 980.775 49.8C980.108 49 979.692 48 979.525 46.8H979.275C978.708 48.3 977.792 49.4833 976.525 50.35C975.292 51.1833 973.625 51.6 971.525 51.6C968.825 51.6 966.675 50.9 965.075 49.5C963.475 48.1 962.675 46.1833 962.675 43.75C962.675 41.35 963.542 39.5 965.275 38.2C967.042 36.9 969.875 36.25 973.775 36.25H979.275V33.7C979.275 31.8 978.742 30.3833 977.675 29.45C976.608 28.4833 975.092 28 973.125 28C971.392 28 969.975 28.35 968.875 29.05C967.775 29.7167 966.892 30.6333 966.225 31.8L963.525 29.8C963.858 29.1333 964.308 28.4833 964.875 27.85C965.442 27.2167 966.142 26.6667 966.975 26.2C967.808 25.7 968.758 25.3167 969.825 25.05C970.892 24.75 972.075 24.6 973.375 24.6C976.408 24.6 978.808 25.3667 980.575 26.9C982.375 28.4333 983.275 30.5667 983.275 33.3V47.5H986.875V51H984.125ZM972.225 48.25C973.258 48.25 974.192 48.1333 975.025 47.9C975.892 47.6333 976.642 47.3 977.275 46.9C977.908 46.4667 978.392 45.9667 978.725 45.4C979.092 44.8 979.275 44.1667 979.275 43.5V39.25H973.775C971.375 39.25 969.625 39.5833 968.525 40.25C967.425 40.9167 966.875 41.8833 966.875 43.15V44.2C966.875 45.5333 967.342 46.55 968.275 47.25C969.242 47.9167 970.558 48.25 972.225 48.25ZM994.255 51V25.2H998.255V29.4H998.455C998.722 28.7667 999.055 28.1667 999.455 27.6C999.855 27 1000.34 26.4833 1000.91 26.05C1001.51 25.6167 1002.21 25.2667 1003.01 25C1003.81 24.7333 1004.74 24.6 1005.81 24.6C1008.51 24.6 1010.67 25.4667 1012.31 27.2C1013.94 28.9 1014.76 31.3167 1014.76 34.45V51H1010.76V35.15C1010.76 32.7833 1010.24 31.0333 1009.21 29.9C1008.17 28.7333 1006.66 28.15 1004.66 28.15C1003.86 28.15 1003.07 28.25 1002.31 28.45C1001.54 28.65 1000.86 28.95 1000.26 29.35C999.655 29.75 999.172 30.2667 998.805 30.9C998.439 31.5333 998.255 32.2667 998.255 33.1V51H994.255ZM1035.59 51C1033.62 51 1032.17 50.45 1031.24 49.35C1030.34 48.25 1029.89 46.8333 1029.89 45.1V28.6H1021.29V25.2H1027.69C1028.55 25.2 1029.15 25.0333 1029.49 24.7C1029.85 24.3333 1030.04 23.7167 1030.04 22.85V16.1H1033.89V25.2H1045.64V28.6H1033.89V47.6H1045.64V51H1035.59ZM1064.62 51.6C1061.92 51.6 1059.58 51.15 1057.62 50.25C1055.68 49.3167 1054.03 48.0833 1052.67 46.55L1055.37 44.2C1056.6 45.5 1057.95 46.5 1059.42 47.2C1060.88 47.9 1062.65 48.25 1064.72 48.25C1066.72 48.25 1068.35 47.9 1069.62 47.2C1070.92 46.4667 1071.57 45.3333 1071.57 43.8C1071.57 43.1333 1071.43 42.5833 1071.17 42.15C1070.93 41.6833 1070.6 41.3167 1070.17 41.05C1069.73 40.7833 1069.25 40.5833 1068.72 40.45C1068.18 40.2833 1067.62 40.15 1067.02 40.05L1062.97 39.45C1062.07 39.3167 1061.08 39.1333 1060.02 38.9C1058.98 38.6667 1058.03 38.3 1057.17 37.8C1056.3 37.2667 1055.57 36.5667 1054.97 35.7C1054.4 34.8333 1054.12 33.7 1054.12 32.3C1054.12 31 1054.37 29.8833 1054.87 28.95C1055.4 27.9833 1056.13 27.1833 1057.07 26.55C1058 25.8833 1059.1 25.4 1060.37 25.1C1061.63 24.7667 1063.02 24.6 1064.52 24.6C1066.85 24.6 1068.87 24.9667 1070.57 25.7C1072.3 26.4333 1073.78 27.45 1075.02 28.75L1072.42 31.2C1072.12 30.8333 1071.73 30.4667 1071.27 30.1C1070.83 29.7 1070.28 29.35 1069.62 29.05C1068.98 28.7167 1068.23 28.45 1067.37 28.25C1066.5 28.05 1065.5 27.95 1064.37 27.95C1062.33 27.95 1060.77 28.3 1059.67 29C1058.6 29.7 1058.07 30.7167 1058.07 32.05C1058.07 32.7167 1058.18 33.2833 1058.42 33.75C1058.68 34.1833 1059.03 34.5333 1059.47 34.8C1059.9 35.0667 1060.38 35.2833 1060.92 35.45C1061.48 35.5833 1062.05 35.7 1062.62 35.8L1066.67 36.4C1067.6 36.5333 1068.58 36.7167 1069.62 36.95C1070.65 37.1833 1071.6 37.5667 1072.47 38.1C1073.33 38.6 1074.05 39.2833 1074.62 40.15C1075.22 41.0167 1075.52 42.15 1075.52 43.55C1075.52 46.1167 1074.52 48.1 1072.52 49.5C1070.55 50.9 1067.92 51.6 1064.62 51.6ZM1087.05 37.9V33.7H1101.55V37.9H1087.05ZM1130.53 46.8H1130.33C1128.66 50 1126.01 51.6 1122.38 51.6C1119.21 51.6 1116.73 50.4167 1114.93 48.05C1113.16 45.6833 1112.28 42.3667 1112.28 38.1C1112.28 33.8333 1113.16 30.5167 1114.93 28.15C1116.73 25.7833 1119.21 24.6 1122.38 24.6C1126.01 24.6 1128.66 26.2 1130.33 29.4H1130.53V14H1134.53V51H1130.53V46.8ZM1123.93 48.05C1124.83 48.05 1125.68 47.9333 1126.48 47.7C1127.28 47.4667 1127.98 47.1333 1128.58 46.7C1129.18 46.2333 1129.64 45.6833 1129.98 45.05C1130.34 44.3833 1130.53 43.6167 1130.53 42.75V33.45C1130.53 32.5833 1130.34 31.8333 1129.98 31.2C1129.64 30.5333 1129.18 29.9833 1128.58 29.55C1127.98 29.0833 1127.28 28.7333 1126.48 28.5C1125.68 28.2667 1124.83 28.15 1123.93 28.15C1121.59 28.15 1119.78 28.8667 1118.48 30.3C1117.21 31.7 1116.58 33.5667 1116.58 35.9V40.3C1116.58 42.6333 1117.21 44.5167 1118.48 45.95C1119.78 47.35 1121.59 48.05 1123.93 48.05ZM1164.01 51C1162.44 51 1161.32 50.6 1160.66 49.8C1159.99 49 1159.57 48 1159.41 46.8H1159.16C1158.59 48.3 1157.67 49.4833 1156.41 50.35C1155.17 51.1833 1153.51 51.6 1151.41 51.6C1148.71 51.6 1146.56 50.9 1144.96 49.5C1143.36 48.1 1142.56 46.1833 1142.56 43.75C1142.56 41.35 1143.42 39.5 1145.16 38.2C1146.92 36.9 1149.76 36.25 1153.66 36.25H1159.16V33.7C1159.16 31.8 1158.62 30.3833 1157.56 29.45C1156.49 28.4833 1154.97 28 1153.01 28C1151.27 28 1149.86 28.35 1148.76 29.05C1147.66 29.7167 1146.77 30.6333 1146.11 31.8L1143.41 29.8C1143.74 29.1333 1144.19 28.4833 1144.76 27.85C1145.32 27.2167 1146.02 26.6667 1146.86 26.2C1147.69 25.7 1148.64 25.3167 1149.71 25.05C1150.77 24.75 1151.96 24.6 1153.26 24.6C1156.29 24.6 1158.69 25.3667 1160.46 26.9C1162.26 28.4333 1163.16 30.5667 1163.16 33.3V47.5H1166.76V51H1164.01ZM1152.11 48.25C1153.14 48.25 1154.07 48.1333 1154.91 47.9C1155.77 47.6333 1156.52 47.3 1157.16 46.9C1157.79 46.4667 1158.27 45.9667 1158.61 45.4C1158.97 44.8 1159.16 44.1667 1159.16 43.5V39.25H1153.66C1151.26 39.25 1149.51 39.5833 1148.41 40.25C1147.31 40.9167 1146.76 41.8833 1146.76 43.15V44.2C1146.76 45.5333 1147.22 46.55 1148.16 47.25C1149.12 47.9167 1150.44 48.25 1152.11 48.25ZM1185.49 51C1183.52 51 1182.07 50.45 1181.14 49.35C1180.24 48.25 1179.79 46.8333 1179.79 45.1V28.6H1171.19V25.2H1177.59C1178.45 25.2 1179.05 25.0333 1179.39 24.7C1179.75 24.3333 1179.94 23.7167 1179.94 22.85V16.1H1183.79V25.2H1195.54V28.6H1183.79V47.6H1195.54V51H1185.49ZM1223.97 51C1222.4 51 1221.29 50.6 1220.62 49.8C1219.95 49 1219.54 48 1219.37 46.8H1219.12C1218.55 48.3 1217.64 49.4833 1216.37 50.35C1215.14 51.1833 1213.47 51.6 1211.37 51.6C1208.67 51.6 1206.52 50.9 1204.92 49.5C1203.32 48.1 1202.52 46.1833 1202.52 43.75C1202.52 41.35 1203.39 39.5 1205.12 38.2C1206.89 36.9 1209.72 36.25 1213.62 36.25H1219.12V33.7C1219.12 31.8 1218.59 30.3833 1217.52 29.45C1216.45 28.4833 1214.94 28 1212.97 28C1211.24 28 1209.82 28.35 1208.72 29.05C1207.62 29.7167 1206.74 30.6333 1206.07 31.8L1203.37 29.8C1203.7 29.1333 1204.15 28.4833 1204.72 27.85C1205.29 27.2167 1205.99 26.6667 1206.82 26.2C1207.65 25.7 1208.6 25.3167 1209.67 25.05C1210.74 24.75 1211.92 24.6 1213.22 24.6C1216.25 24.6 1218.65 25.3667 1220.42 26.9C1222.22 28.4333 1223.12 30.5667 1223.12 33.3V47.5H1226.72V51H1223.97ZM1212.07 48.25C1213.1 48.25 1214.04 48.1333 1214.87 47.9C1215.74 47.6333 1216.49 47.3 1217.12 46.9C1217.75 46.4667 1218.24 45.9667 1218.57 45.4C1218.94 44.8 1219.12 44.1667 1219.12 43.5V39.25H1213.62C1211.22 39.25 1209.47 39.5833 1208.37 40.25C1207.27 40.9167 1206.72 41.8833 1206.72 43.15V44.2C1206.72 45.5333 1207.19 46.55 1208.12 47.25C1209.09 47.9167 1210.4 48.25 1212.07 48.25ZM1244.2 51.45C1242.83 51.45 1241.87 51.1667 1241.3 50.6C1240.77 50.0333 1240.5 49.3167 1240.5 48.45V47.55C1240.5 46.6833 1240.77 45.9667 1241.3 45.4C1241.87 44.8333 1242.83 44.55 1244.2 44.55C1245.57 44.55 1246.52 44.8333 1247.05 45.4C1247.62 45.9667 1247.9 46.6833 1247.9 47.55V48.45C1247.9 49.3167 1247.62 50.0333 1247.05 50.6C1246.52 51.1667 1245.57 51.45 1244.2 51.45ZM1275.08 51.6C1273.21 51.6 1271.55 51.2833 1270.08 50.65C1268.65 49.9833 1267.43 49.0667 1266.43 47.9C1265.43 46.7333 1264.66 45.3167 1264.13 43.65C1263.63 41.9833 1263.38 40.1333 1263.38 38.1C1263.38 36.0667 1263.65 34.2167 1264.18 32.55C1264.71 30.8833 1265.48 29.4667 1266.48 28.3C1267.48 27.1 1268.7 26.1833 1270.13 25.55C1271.56 24.9167 1273.2 24.6 1275.03 24.6C1277.53 24.6 1279.56 25.15 1281.13 26.25C1282.7 27.35 1283.85 28.7833 1284.58 30.55L1281.38 32.25C1280.91 30.9167 1280.13 29.8833 1279.03 29.15C1277.96 28.4167 1276.63 28.05 1275.03 28.05C1273.86 28.05 1272.81 28.25 1271.88 28.65C1270.98 29.0167 1270.21 29.55 1269.58 30.25C1268.95 30.95 1268.46 31.7833 1268.13 32.75C1267.83 33.7167 1267.68 34.7667 1267.68 35.9V40.3C1267.68 41.4333 1267.83 42.4833 1268.13 43.45C1268.46 44.4167 1268.95 45.25 1269.58 45.95C1270.21 46.65 1271 47.2 1271.93 47.6C1272.86 47.9667 1273.93 48.15 1275.13 48.15C1276.86 48.15 1278.3 47.75 1279.43 46.95C1280.56 46.15 1281.46 45.05 1282.13 43.65L1284.98 45.6C1284.21 47.3333 1283.01 48.7667 1281.38 49.9C1279.78 51.0333 1277.68 51.6 1275.08 51.6ZM1304.46 51.6C1301.76 51.6 1299.43 51.15 1297.46 50.25C1295.53 49.3167 1293.88 48.0833 1292.51 46.55L1295.21 44.2C1296.44 45.5 1297.79 46.5 1299.26 47.2C1300.73 47.9 1302.49 48.25 1304.56 48.25C1306.56 48.25 1308.19 47.9 1309.46 47.2C1310.76 46.4667 1311.41 45.3333 1311.41 43.8C1311.41 43.1333 1311.28 42.5833 1311.01 42.15C1310.78 41.6833 1310.44 41.3167 1310.01 41.05C1309.58 40.7833 1309.09 40.5833 1308.56 40.45C1308.03 40.2833 1307.46 40.15 1306.86 40.05L1302.81 39.45C1301.91 39.3167 1300.93 39.1333 1299.86 38.9C1298.83 38.6667 1297.88 38.3 1297.01 37.8C1296.14 37.2667 1295.41 36.5667 1294.81 35.7C1294.24 34.8333 1293.96 33.7 1293.96 32.3C1293.96 31 1294.21 29.8833 1294.71 28.95C1295.24 27.9833 1295.98 27.1833 1296.91 26.55C1297.84 25.8833 1298.94 25.4 1300.21 25.1C1301.48 24.7667 1302.86 24.6 1304.36 24.6C1306.69 24.6 1308.71 24.9667 1310.41 25.7C1312.14 26.4333 1313.63 27.45 1314.86 28.75L1312.26 31.2C1311.96 30.8333 1311.58 30.4667 1311.11 30.1C1310.68 29.7 1310.13 29.35 1309.46 29.05C1308.83 28.7167 1308.08 28.45 1307.21 28.25C1306.34 28.05 1305.34 27.95 1304.21 27.95C1302.18 27.95 1300.61 28.3 1299.51 29C1298.44 29.7 1297.91 30.7167 1297.91 32.05C1297.91 32.7167 1298.03 33.2833 1298.26 33.75C1298.53 34.1833 1298.88 34.5333 1299.31 34.8C1299.74 35.0667 1300.23 35.2833 1300.76 35.45C1301.33 35.5833 1301.89 35.7 1302.46 35.8L1306.51 36.4C1307.44 36.5333 1308.43 36.7167 1309.46 36.95C1310.49 37.1833 1311.44 37.5667 1312.31 38.1C1313.18 38.6 1313.89 39.2833 1314.46 40.15C1315.06 41.0167 1315.36 42.15 1315.36 43.55C1315.36 46.1167 1314.36 48.1 1312.36 49.5C1310.39 50.9 1307.76 51.6 1304.46 51.6ZM1331.59 51L1322.34 25.2H1326.39L1330.09 36L1334.09 47.65H1334.29L1338.29 36L1341.99 25.2H1345.94L1336.69 51H1331.59ZM1357.27 14H1363.72L1357.97 27.85H1354.62L1357.27 14ZM1369.22 14H1375.67L1369.92 27.85H1366.57L1369.22 14ZM1398.85 35.45C1398.85 37.8833 1398.57 40.2333 1398 42.5C1397.47 44.7333 1396.72 46.8167 1395.75 48.75C1394.82 50.6833 1393.72 52.4333 1392.45 54C1391.18 55.5667 1389.85 56.8667 1388.45 57.9H1384.4C1385.83 56.8 1387.2 55.5167 1388.5 54.05C1389.8 52.6167 1390.93 51.05 1391.9 49.35C1392.9 47.6167 1393.68 45.7667 1394.25 43.8C1394.82 41.8 1395.1 39.7333 1395.1 37.6V33.3C1395.1 31.1667 1394.82 29.1167 1394.25 27.15C1393.68 25.15 1392.9 23.3 1391.9 21.6C1390.93 19.8667 1389.8 18.2833 1388.5 16.85C1387.2 15.3833 1385.83 14.1 1384.4 13H1388.45C1389.85 14.0667 1391.18 15.3833 1392.45 16.95C1393.72 18.4833 1394.82 20.2167 1395.75 22.15C1396.72 24.0833 1397.47 26.1833 1398 28.45C1398.57 30.6833 1398.85 33.0167 1398.85 35.45Z" fill="black"/>
<path d="M453.557 47.6H461.107V28.6H453.557V25.2H465.107V31.7H465.357C465.89 29.6667 466.89 28.0833 468.357 26.95C469.857 25.7833 471.757 25.2 474.057 25.2H477.657V29.2H472.807C470.507 29.2 468.64 29.8667 467.207 31.2C465.807 32.5333 465.107 34.2833 465.107 36.45V47.6H475.107V51H453.557V47.6ZM495.138 51.6C493.271 51.6 491.588 51.2833 490.088 50.65C488.621 50.0167 487.354 49.1167 486.287 47.95C485.254 46.75 484.454 45.3333 483.888 43.7C483.321 42.0333 483.038 40.1833 483.038 38.15C483.038 36.0833 483.321 34.2167 483.888 32.55C484.488 30.8833 485.304 29.4667 486.338 28.3C487.371 27.1 488.604 26.1833 490.038 25.55C491.504 24.9167 493.121 24.6 494.888 24.6C496.621 24.6 498.188 24.9167 499.588 25.55C501.021 26.1833 502.238 27.0667 503.238 28.2C504.238 29.3 505.004 30.6167 505.538 32.15C506.071 33.6833 506.338 35.3667 506.338 37.2V39.1H487.238V40.3C487.238 41.4333 487.421 42.4833 487.788 43.45C488.154 44.4167 488.671 45.25 489.338 45.95C490.038 46.65 490.871 47.2 491.838 47.6C492.838 47.9667 493.938 48.15 495.138 48.15C496.871 48.15 498.371 47.75 499.638 46.95C500.904 46.15 501.871 45.05 502.538 43.65L505.488 45.65C504.721 47.3833 503.438 48.8167 501.638 49.95C499.871 51.05 497.704 51.6 495.138 51.6ZM494.888 27.9C493.788 27.9 492.771 28.1 491.838 28.5C490.904 28.9 490.088 29.45 489.388 30.15C488.721 30.85 488.188 31.6833 487.788 32.65C487.421 33.5833 487.238 34.6167 487.238 35.75V36.1H502.038V35.55C502.038 34.4167 501.854 33.3833 501.488 32.45C501.154 31.5167 500.671 30.7167 500.038 30.05C499.438 29.35 498.688 28.8167 497.788 28.45C496.921 28.0833 495.954 27.9 494.888 27.9ZM534.418 51C532.851 51 531.735 50.6 531.068 49.8C530.401 49 529.985 48 529.818 46.8H529.568C529.001 48.3 528.085 49.4833 526.818 50.35C525.585 51.1833 523.918 51.6 521.818 51.6C519.118 51.6 516.968 50.9 515.368 49.5C513.768 48.1 512.968 46.1833 512.968 43.75C512.968 41.35 513.835 39.5 515.568 38.2C517.335 36.9 520.168 36.25 524.068 36.25H529.568V33.7C529.568 31.8 529.035 30.3833 527.968 29.45C526.901 28.4833 525.385 28 523.418 28C521.685 28 520.268 28.35 519.168 29.05C518.068 29.7167 517.185 30.6333 516.518 31.8L513.818 29.8C514.151 29.1333 514.601 28.4833 515.168 27.85C515.735 27.2167 516.435 26.6667 517.268 26.2C518.101 25.7 519.051 25.3167 520.118 25.05C521.185 24.75 522.368 24.6 523.668 24.6C526.701 24.6 529.101 25.3667 530.868 26.9C532.668 28.4333 533.568 30.5667 533.568 33.3V47.5H537.168V51H534.418ZM522.518 48.25C523.551 48.25 524.485 48.1333 525.318 47.9C526.185 47.6333 526.935 47.3 527.568 46.9C528.201 46.4667 528.685 45.9667 529.018 45.4C529.385 44.8 529.568 44.1667 529.568 43.5V39.25H524.068C521.668 39.25 519.918 39.5833 518.818 40.25C517.718 40.9167 517.168 41.8833 517.168 43.15V44.2C517.168 45.5333 517.635 46.55 518.568 47.25C519.535 47.9167 520.851 48.25 522.518 48.25ZM560.898 46.8H560.698C559.032 50 556.382 51.6 552.748 51.6C549.582 51.6 547.098 50.4167 545.298 48.05C543.532 45.6833 542.648 42.3667 542.648 38.1C542.648 33.8333 543.532 30.5167 545.298 28.15C547.098 25.7833 549.582 24.6 552.748 24.6C556.382 24.6 559.032 26.2 560.698 29.4H560.898V14H564.898V51H560.898V46.8ZM554.298 48.05C555.198 48.05 556.048 47.9333 556.848 47.7C557.648 47.4667 558.348 47.1333 558.948 46.7C559.548 46.2333 560.015 45.6833 560.348 45.05C560.715 44.3833 560.898 43.6167 560.898 42.75V33.45C560.898 32.5833 560.715 31.8333 560.348 31.2C560.015 30.5333 559.548 29.9833 558.948 29.55C558.348 29.0833 557.648 28.7333 556.848 28.5C556.048 28.2667 555.198 28.15 554.298 28.15C551.965 28.15 550.148 28.8667 548.848 30.3C547.582 31.7 546.948 33.5667 546.948 35.9V40.3C546.948 42.6333 547.582 44.5167 548.848 45.95C550.148 47.35 551.965 48.05 554.298 48.05ZM572.629 59.45V55.75H596.629V59.45H572.629ZM615.509 51.6C613.643 51.6 611.976 51.2833 610.509 50.65C609.076 49.9833 607.859 49.0667 606.859 47.9C605.859 46.7333 605.093 45.3167 604.559 43.65C604.059 41.9833 603.809 40.1333 603.809 38.1C603.809 36.0667 604.076 34.2167 604.609 32.55C605.143 30.8833 605.909 29.4667 606.909 28.3C607.909 27.1 609.126 26.1833 610.559 25.55C611.993 24.9167 613.626 24.6 615.459 24.6C617.959 24.6 619.993 25.15 621.559 26.25C623.126 27.35 624.276 28.7833 625.009 30.55L621.809 32.25C621.343 30.9167 620.559 29.8833 619.459 29.15C618.393 28.4167 617.059 28.05 615.459 28.05C614.293 28.05 613.243 28.25 612.309 28.65C611.409 29.0167 610.643 29.55 610.009 30.25C609.376 30.95 608.893 31.7833 608.559 32.75C608.259 33.7167 608.109 34.7667 608.109 35.9V40.3C608.109 41.4333 608.259 42.4833 608.559 43.45C608.893 44.4167 609.376 45.25 610.009 45.95C610.643 46.65 611.426 47.2 612.359 47.6C613.293 47.9667 614.359 48.15 615.559 48.15C617.293 48.15 618.726 47.75 619.859 46.95C620.993 46.15 621.893 45.05 622.559 43.65L625.409 45.6C624.643 47.3333 623.443 48.7667 621.809 49.9C620.209 51.0333 618.109 51.6 615.509 51.6ZM644.89 51.6C642.19 51.6 639.857 51.15 637.89 50.25C635.957 49.3167 634.307 48.0833 632.94 46.55L635.64 44.2C636.873 45.5 638.223 46.5 639.69 47.2C641.157 47.9 642.923 48.25 644.99 48.25C646.99 48.25 648.623 47.9 649.89 47.2C651.19 46.4667 651.84 45.3333 651.84 43.8C651.84 43.1333 651.707 42.5833 651.44 42.15C651.207 41.6833 650.873 41.3167 650.44 41.05C650.007 40.7833 649.523 40.5833 648.99 40.45C648.457 40.2833 647.89 40.15 647.29 40.05L643.24 39.45C642.34 39.3167 641.357 39.1333 640.29 38.9C639.257 38.6667 638.307 38.3 637.44 37.8C636.573 37.2667 635.84 36.5667 635.24 35.7C634.673 34.8333 634.39 33.7 634.39 32.3C634.39 31 634.64 29.8833 635.14 28.95C635.673 27.9833 636.407 27.1833 637.34 26.55C638.273 25.8833 639.373 25.4 640.64 25.1C641.907 24.7667 643.29 24.6 644.79 24.6C647.123 24.6 649.14 24.9667 650.84 25.7C652.573 26.4333 654.057 27.45 655.29 28.75L652.69 31.2C652.39 30.8333 652.007 30.4667 651.54 30.1C651.107 29.7 650.557 29.35 649.89 29.05C649.257 28.7167 648.507 28.45 647.64 28.25C646.773 28.05 645.773 27.95 644.64 27.95C642.607 27.95 641.04 28.3 639.94 29C638.873 29.7 638.34 30.7167 638.34 32.05C638.34 32.7167 638.457 33.2833 638.69 33.75C638.957 34.1833 639.307 34.5333 639.74 34.8C640.173 35.0667 640.657 35.2833 641.19 35.45C641.757 35.5833 642.323 35.7 642.89 35.8L646.94 36.4C647.873 36.5333 648.857 36.7167 649.89 36.95C650.923 37.1833 651.873 37.5667 652.74 38.1C653.607 38.6 654.323 39.2833 654.89 40.15C655.49 41.0167 655.79 42.15 655.79 43.55C655.79 46.1167 654.79 48.1 652.79 49.5C650.823 50.9 648.19 51.6 644.89 51.6ZM672.02 51L662.77 25.2H666.82L670.52 36L674.52 47.65H674.72L678.72 36L682.42 25.2H686.37L677.12 51H672.02Z" fill="#FF7400"/>
<path d="M37.571 238.818C37.571 242.866 36.7839 246.281 35.2095 249.063C33.6352 251.833 31.5104 253.934 28.8352 255.366C26.16 256.787 23.1771 257.497 19.8864 257.497C16.572 257.497 13.5772 256.781 10.902 255.349C8.23864 253.905 6.11979 251.798 4.54545 249.028C2.98295 246.246 2.2017 242.843 2.2017 238.818C2.2017 234.77 2.98295 231.361 4.54545 228.591C6.11979 225.809 8.23864 223.708 10.902 222.288C13.5772 220.855 16.572 220.139 19.8864 220.139C23.1771 220.139 26.16 220.855 28.8352 222.288C31.5104 223.708 33.6352 225.809 35.2095 228.591C36.7839 231.361 37.571 234.77 37.571 238.818ZM27.4148 238.818C27.4148 236.64 27.1248 234.805 26.5447 233.314C25.9766 231.811 25.1302 230.674 24.0057 229.905C22.893 229.124 21.5199 228.733 19.8864 228.733C18.2528 228.733 16.8738 229.124 15.7493 229.905C14.6366 230.674 13.7902 231.811 13.2102 233.314C12.642 234.805 12.358 236.64 12.358 238.818C12.358 240.996 12.642 242.837 13.2102 244.34C13.7902 245.832 14.6366 246.968 15.7493 247.749C16.8738 248.519 18.2528 248.903 19.8864 248.903C21.5199 248.903 22.893 248.519 24.0057 247.749C25.1302 246.968 25.9766 245.832 26.5447 244.34C27.1248 242.837 27.4148 240.996 27.4148 238.818ZM42.1387 257V220.636H57.9057C60.6756 220.636 63.0016 221.009 64.8837 221.755C66.7776 222.501 68.204 223.554 69.1628 224.915C70.1335 226.277 70.6188 227.881 70.6188 229.727C70.6188 231.065 70.3229 232.284 69.731 233.385C69.151 234.486 68.3342 235.409 67.2807 236.155C66.2272 236.889 64.9962 237.398 63.5875 237.682V238.037C65.15 238.096 66.5705 238.493 67.8489 239.227C69.1273 239.949 70.1453 240.949 70.9029 242.227C71.6605 243.494 72.0392 244.985 72.0392 246.702C72.0392 248.69 71.5184 250.46 70.4767 252.011C69.4469 253.561 67.9791 254.781 66.0733 255.668C64.1676 256.556 61.8948 257 59.2551 257H42.1387ZM52.0108 249.116H56.6273C58.2845 249.116 59.5274 248.809 60.356 248.193C61.1846 247.566 61.5989 246.643 61.5989 245.423C61.5989 244.571 61.4036 243.849 61.013 243.257C60.6223 242.665 60.066 242.215 59.3439 241.908C58.6337 241.6 57.7755 241.446 56.7694 241.446H52.0108V249.116ZM52.0108 235.338H56.0591C56.9232 235.338 57.6867 235.202 58.3496 234.93C59.0125 234.657 59.5274 234.267 59.8944 233.758C60.2731 233.237 60.4625 232.604 60.4625 231.858C60.4625 230.733 60.0601 229.875 59.2551 229.283C58.4502 228.68 57.4322 228.378 56.2012 228.378H52.0108V235.338ZM90.5229 220.636H100.253V245.565C100.241 247.933 99.6434 250.016 98.4597 251.815C97.2878 253.603 95.6661 255 93.5946 256.006C91.535 257 89.1616 257.497 86.4746 257.497C84.1427 257.497 82.012 257.095 80.0826 256.29C78.1531 255.473 76.6143 254.195 75.4661 252.455C74.3179 250.703 73.7497 248.43 73.7615 245.636H83.6337C83.6692 246.548 83.8231 247.317 84.0953 247.945C84.3794 248.572 84.7701 249.045 85.2672 249.365C85.7762 249.673 86.3917 249.827 87.1138 249.827C87.8477 249.827 88.4632 249.667 88.9604 249.347C89.4694 249.028 89.8541 248.554 90.1145 247.927C90.3749 247.288 90.5111 246.5 90.5229 245.565V220.636ZM104.932 257V220.636H131.139V228.591H114.804V234.841H129.79V242.795H114.804V249.045H131.068V257H104.932ZM169.984 234.273H159.97C159.899 233.444 159.709 232.692 159.402 232.018C159.106 231.343 158.691 230.763 158.159 230.278C157.638 229.781 157.005 229.402 156.259 229.141C155.513 228.869 154.667 228.733 153.72 228.733C152.063 228.733 150.66 229.135 149.512 229.94C148.375 230.745 147.511 231.899 146.919 233.403C146.339 234.906 146.049 236.711 146.049 238.818C146.049 241.044 146.345 242.908 146.937 244.411C147.541 245.903 148.411 247.027 149.547 247.785C150.684 248.531 152.051 248.903 153.649 248.903C154.56 248.903 155.377 248.791 156.099 248.566C156.821 248.329 157.449 247.992 157.981 247.554C158.514 247.116 158.946 246.589 159.277 245.974C159.621 245.346 159.851 244.642 159.97 243.861L169.984 243.932C169.866 245.471 169.434 247.039 168.688 248.637C167.942 250.223 166.883 251.691 165.51 253.04C164.148 254.378 162.462 255.455 160.449 256.272C158.437 257.089 156.099 257.497 153.436 257.497C150.098 257.497 147.103 256.781 144.451 255.349C141.812 253.916 139.722 251.809 138.184 249.028C136.657 246.246 135.893 242.843 135.893 238.818C135.893 234.77 136.674 231.361 138.237 228.591C139.799 225.809 141.906 223.708 144.558 222.288C147.209 220.855 150.169 220.139 153.436 220.139C155.732 220.139 157.845 220.453 159.775 221.08C161.704 221.708 163.397 222.625 164.853 223.832C166.309 225.028 167.48 226.502 168.368 228.254C169.256 230.005 169.795 232.012 169.984 234.273ZM173.469 228.591V220.636H205.074V228.591H194.136V257H184.406V228.591H173.469Z" fill="#6CABDD"/>
<path d="M463.344 257V220.636H488.912V228.591H473.216V234.841H487.349V242.795H473.216V257H463.344ZM514.063 220.636H523.935V243.932C523.935 246.702 523.272 249.099 521.946 251.123C520.632 253.135 518.798 254.692 516.442 255.793C514.087 256.882 511.352 257.426 508.239 257.426C505.102 257.426 502.356 256.882 500 255.793C497.645 254.692 495.81 253.135 494.496 251.123C493.194 249.099 492.543 246.702 492.543 243.932V220.636H502.415V243.08C502.415 244.204 502.664 245.21 503.161 246.098C503.658 246.974 504.345 247.661 505.221 248.158C506.108 248.655 507.114 248.903 508.239 248.903C509.375 248.903 510.382 248.655 511.257 248.158C512.133 247.661 512.82 246.974 513.317 246.098C513.814 245.21 514.063 244.204 514.063 243.08V220.636ZM560.09 220.636V257H551.851L538.712 237.895H538.499V257H528.627V220.636H537.008L549.934 239.67H550.218V220.636H560.09ZM598.709 234.273H588.694C588.623 233.444 588.434 232.692 588.126 232.018C587.83 231.343 587.416 230.763 586.883 230.278C586.363 229.781 585.729 229.402 584.983 229.141C584.238 228.869 583.391 228.733 582.444 228.733C580.787 228.733 579.385 229.135 578.236 229.94C577.1 230.745 576.236 231.899 575.644 233.403C575.064 234.906 574.774 236.711 574.774 238.818C574.774 241.044 575.07 242.908 575.662 244.411C576.265 245.903 577.135 247.027 578.272 247.785C579.408 248.531 580.775 248.903 582.373 248.903C583.285 248.903 584.102 248.791 584.824 248.566C585.546 248.329 586.173 247.992 586.706 247.554C587.238 247.116 587.671 246.589 588.002 245.974C588.345 245.346 588.576 244.642 588.694 243.861L598.709 243.932C598.59 245.471 598.158 247.039 597.412 248.637C596.667 250.223 595.607 251.691 594.234 253.04C592.873 254.378 591.186 255.455 589.174 256.272C587.162 257.089 584.824 257.497 582.16 257.497C578.822 257.497 575.827 256.781 573.176 255.349C570.536 253.916 568.447 251.809 566.908 249.028C565.381 246.246 564.618 242.843 564.618 238.818C564.618 234.77 565.399 231.361 566.961 228.591C568.524 225.809 570.631 223.708 573.282 222.288C575.934 220.855 578.893 220.139 582.16 220.139C584.457 220.139 586.57 220.453 588.499 221.08C590.429 221.708 592.121 222.625 593.577 223.832C595.033 225.028 596.205 226.502 597.093 228.254C597.981 230.005 598.519 232.012 598.709 234.273ZM602.193 228.591V220.636H633.798V228.591H622.861V257H613.131V228.591H602.193ZM647.386 220.636V257H637.514V220.636H647.386ZM687.292 238.818C687.292 242.866 686.505 246.281 684.93 249.063C683.356 251.833 681.231 253.934 678.556 255.366C675.881 256.787 672.898 257.497 669.607 257.497C666.293 257.497 663.298 256.781 660.623 255.349C657.959 253.905 655.84 251.798 654.266 249.028C652.704 246.246 651.922 242.843 651.922 238.818C651.922 234.77 652.704 231.361 654.266 228.591C655.84 225.809 657.959 223.708 660.623 222.288C663.298 220.855 666.293 220.139 669.607 220.139C672.898 220.139 675.881 220.855 678.556 222.288C681.231 223.708 683.356 225.809 684.93 228.591C686.505 231.361 687.292 234.77 687.292 238.818ZM677.135 238.818C677.135 236.64 676.845 234.805 676.265 233.314C675.697 231.811 674.851 230.674 673.726 229.905C672.614 229.124 671.241 228.733 669.607 228.733C667.974 228.733 666.595 229.124 665.47 229.905C664.357 230.674 663.511 231.811 662.931 233.314C662.363 234.805 662.079 236.64 662.079 238.818C662.079 240.996 662.363 242.837 662.931 244.34C663.511 245.832 664.357 246.968 665.47 247.749C666.595 248.519 667.974 248.903 669.607 248.903C671.241 248.903 672.614 248.519 673.726 247.749C674.851 246.968 675.697 245.832 676.265 244.34C676.845 242.837 677.135 240.996 677.135 238.818ZM723.322 220.636V257H715.084L701.945 237.895H701.732V257H691.859V220.636H700.24L713.166 239.67H713.45V220.636H723.322Z" fill="#FF7400"/>
<path d="M9.16193 154.341C7.58523 154.341 6.22514 153.993 5.08168 153.297C3.94531 152.594 3.06818 151.614 2.45028 150.357C1.83949 149.092 1.53409 147.622 1.53409 145.946C1.53409 144.27 1.83949 142.793 2.45028 141.514C3.06818 140.229 3.92756 139.227 5.02841 138.51C6.13636 137.786 7.42898 137.423 8.90625 137.423C9.75852 137.423 10.6001 137.565 11.4311 137.849C12.2621 138.134 13.0185 138.595 13.7003 139.234C14.3821 139.866 14.9254 140.705 15.3303 141.749C15.7351 142.793 15.9375 144.078 15.9375 145.605V146.67H3.32386V144.497H13.3807C13.3807 143.574 13.196 142.75 12.8267 142.026C12.4645 141.301 11.946 140.729 11.2713 140.31C10.6037 139.891 9.81534 139.682 8.90625 139.682C7.90483 139.682 7.03835 139.93 6.30682 140.428C5.58239 140.918 5.02486 141.557 4.63423 142.345C4.24361 143.134 4.0483 143.979 4.0483 144.881V146.33C4.0483 147.565 4.26136 148.613 4.6875 149.472C5.12074 150.325 5.72088 150.974 6.48793 151.422C7.25497 151.862 8.14631 152.082 9.16193 152.082C9.82244 152.082 10.419 151.99 10.9517 151.805C11.4915 151.614 11.9567 151.33 12.3473 150.953C12.7379 150.57 13.0398 150.094 13.2528 149.526L15.6818 150.207C15.4261 151.031 14.9964 151.756 14.3928 152.381C13.7891 152.999 13.0433 153.482 12.1555 153.83C11.2678 154.17 10.2699 154.341 9.16193 154.341ZM32.6447 137.636L26.5936 154H24.0368L17.9856 137.636H20.7129L25.2299 150.676H25.4004L29.9174 137.636H32.6447ZM42.2381 154.341C40.6614 154.341 39.3013 153.993 38.1578 153.297C37.0215 152.594 36.1444 151.614 35.5265 150.357C34.9157 149.092 34.6103 147.622 34.6103 145.946C34.6103 144.27 34.9157 142.793 35.5265 141.514C36.1444 140.229 37.0037 139.227 38.1046 138.51C39.2125 137.786 40.5051 137.423 41.9824 137.423C42.8347 137.423 43.6763 137.565 44.5073 137.849C45.3382 138.134 46.0946 138.595 46.7765 139.234C47.4583 139.866 48.0016 140.705 48.4064 141.749C48.8113 142.793 49.0137 144.078 49.0137 145.605V146.67H36.4V144.497H46.4569C46.4569 143.574 46.2722 142.75 45.9029 142.026C45.5407 141.301 45.0222 140.729 44.3475 140.31C43.6799 139.891 42.8915 139.682 41.9824 139.682C40.981 139.682 40.1145 139.93 39.383 140.428C38.6586 140.918 38.101 141.557 37.7104 142.345C37.3198 143.134 37.1245 143.979 37.1245 144.881V146.33C37.1245 147.565 37.3375 148.613 37.7637 149.472C38.1969 150.325 38.7971 150.974 39.5641 151.422C40.3311 151.862 41.2225 152.082 42.2381 152.082C42.8986 152.082 43.4952 151.99 44.0279 151.805C44.5676 151.614 45.0328 151.33 45.4235 150.953C45.8141 150.57 46.1159 150.094 46.329 149.526L48.758 150.207C48.5023 151.031 48.0726 151.756 47.4689 152.381C46.8652 152.999 46.1195 153.482 45.2317 153.83C44.3439 154.17 43.3461 154.341 42.2381 154.341ZM52.8382 154V137.636H55.2672V140.108H55.4377C55.736 139.298 56.2757 138.641 57.057 138.137C57.8382 137.633 58.7189 137.381 59.699 137.381C59.8837 137.381 60.1145 137.384 60.3915 137.391C60.6685 137.398 60.878 137.409 61.0201 137.423V139.98C60.9348 139.959 60.7395 139.927 60.4341 139.884C60.1358 139.835 59.8198 139.81 59.486 139.81C58.6905 139.81 57.9803 139.977 57.3553 140.31C56.7374 140.637 56.2473 141.092 55.8851 141.674C55.53 142.249 55.3525 142.906 55.3525 143.645V154H52.8382ZM66.1177 160.094C65.6916 160.094 65.3116 160.058 64.9778 159.987C64.644 159.923 64.4132 159.859 64.2853 159.795L64.9245 157.58C65.8407 157.814 66.6042 157.807 67.215 157.558C67.8258 157.317 68.3549 156.585 68.8024 155.364L69.2711 154.085L63.22 137.636H65.9473L70.4643 150.676H70.6348L75.1518 137.636L77.9004 137.679L70.9331 156.386C70.6206 157.217 70.2335 157.906 69.7718 158.453C69.3102 159.007 68.774 159.419 68.1632 159.689C67.5595 159.959 66.8777 160.094 66.1177 160.094ZM88.3434 137.636V139.767H79.8633V137.636H88.3434ZM82.3349 133.716H84.8491V149.312C84.8491 150.023 84.9521 150.555 85.158 150.911C85.3711 151.259 85.641 151.493 85.9677 151.614C86.3015 151.727 86.6531 151.784 87.0224 151.784C87.2994 151.784 87.5266 151.77 87.7042 151.741C87.8817 151.706 88.0238 151.678 88.1303 151.656L88.6417 153.915C88.4712 153.979 88.2333 154.043 87.9279 154.107C87.6225 154.178 87.2354 154.213 86.7667 154.213C86.0565 154.213 85.3604 154.06 84.6786 153.755C84.0039 153.45 83.4428 152.984 82.9954 152.359C82.555 151.734 82.3349 150.946 82.3349 149.994V133.716ZM94.9911 144.156V154H92.4769V132.182H94.9911V140.193H95.2042C95.5877 139.348 96.163 138.677 96.93 138.18C97.7042 137.675 98.734 137.423 100.02 137.423C101.135 137.423 102.111 137.647 102.949 138.094C103.787 138.535 104.437 139.213 104.899 140.129C105.368 141.038 105.602 142.196 105.602 143.602V154H103.088V143.773C103.088 142.473 102.75 141.468 102.076 140.758C101.408 140.04 100.481 139.682 99.2951 139.682C98.4712 139.682 97.7326 139.856 97.0792 140.204C96.4329 140.552 95.9215 141.06 95.5451 141.727C95.1758 142.395 94.9911 143.205 94.9911 144.156ZM110.202 154V137.636H112.716V154H110.202ZM111.48 134.909C110.99 134.909 110.567 134.742 110.212 134.408C109.864 134.075 109.69 133.673 109.69 133.205C109.69 132.736 109.864 132.335 110.212 132.001C110.567 131.667 110.99 131.5 111.48 131.5C111.97 131.5 112.389 131.667 112.737 132.001C113.092 132.335 113.27 132.736 113.27 133.205C113.27 133.673 113.092 134.075 112.737 134.408C112.389 134.742 111.97 134.909 111.48 134.909ZM119.835 144.156V154H117.321V137.636H119.75V140.193H119.963C120.346 139.362 120.929 138.695 121.71 138.19C122.491 137.679 123.5 137.423 124.735 137.423C125.843 137.423 126.813 137.651 127.644 138.105C128.475 138.553 129.121 139.234 129.583 140.151C130.044 141.06 130.275 142.21 130.275 143.602V154H127.761V143.773C127.761 142.487 127.427 141.486 126.76 140.768C126.092 140.044 125.176 139.682 124.011 139.682C123.208 139.682 122.491 139.856 121.859 140.204C121.234 140.552 120.74 141.06 120.378 141.727C120.016 142.395 119.835 143.205 119.835 144.156ZM141.475 160.477C140.26 160.477 139.216 160.321 138.343 160.009C137.469 159.703 136.741 159.298 136.159 158.794C135.583 158.297 135.125 157.764 134.784 157.196L136.787 155.79C137.014 156.088 137.302 156.429 137.65 156.812C137.998 157.203 138.474 157.54 139.078 157.825C139.688 158.116 140.487 158.261 141.475 158.261C142.796 158.261 143.886 157.942 144.745 157.303C145.605 156.663 146.034 155.662 146.034 154.298V150.974H145.821C145.637 151.273 145.374 151.642 145.033 152.082C144.699 152.516 144.216 152.903 143.584 153.244C142.959 153.577 142.114 153.744 141.048 153.744C139.727 153.744 138.541 153.432 137.49 152.807C136.446 152.182 135.619 151.273 135.008 150.08C134.404 148.886 134.102 147.437 134.102 145.733C134.102 144.057 134.397 142.597 134.987 141.354C135.576 140.104 136.396 139.138 137.448 138.457C138.499 137.768 139.713 137.423 141.091 137.423C142.156 137.423 143.002 137.601 143.627 137.956C144.259 138.304 144.742 138.702 145.075 139.149C145.416 139.589 145.679 139.952 145.864 140.236H146.119V137.636H148.548V154.469C148.548 155.875 148.229 157.018 147.59 157.899C146.958 158.787 146.105 159.437 145.033 159.849C143.968 160.268 142.781 160.477 141.475 160.477ZM141.389 151.486C142.398 151.486 143.25 151.255 143.946 150.793C144.642 150.332 145.171 149.668 145.534 148.801C145.896 147.935 146.077 146.898 146.077 145.69C146.077 144.511 145.899 143.471 145.544 142.569C145.189 141.667 144.664 140.96 143.968 140.449C143.271 139.937 142.412 139.682 141.389 139.682C140.324 139.682 139.436 139.952 138.726 140.491C138.023 141.031 137.494 141.756 137.139 142.665C136.791 143.574 136.617 144.582 136.617 145.69C136.617 146.827 136.794 147.832 137.149 148.705C137.512 149.572 138.044 150.254 138.747 150.751C139.458 151.241 140.338 151.486 141.389 151.486ZM168.705 137.636V139.767H160.225V137.636H168.705ZM162.696 133.716H165.21V149.312C165.21 150.023 165.313 150.555 165.519 150.911C165.732 151.259 166.002 151.493 166.329 151.614C166.663 151.727 167.014 151.784 167.384 151.784C167.661 151.784 167.888 151.77 168.066 151.741C168.243 151.706 168.385 151.678 168.492 151.656L169.003 153.915C168.833 153.979 168.595 154.043 168.289 154.107C167.984 154.178 167.597 154.213 167.128 154.213C166.418 154.213 165.722 154.06 165.04 153.755C164.365 153.45 163.804 152.984 163.357 152.359C162.916 151.734 162.696 150.946 162.696 149.994V133.716ZM175.352 144.156V154H172.838V132.182H175.352V140.193H175.566C175.949 139.348 176.524 138.677 177.291 138.18C178.066 137.675 179.095 137.423 180.381 137.423C181.496 137.423 182.472 137.647 183.311 138.094C184.149 138.535 184.798 139.213 185.26 140.129C185.729 141.038 185.963 142.196 185.963 143.602V154H183.449V143.773C183.449 142.473 183.112 141.468 182.437 140.758C181.769 140.04 180.843 139.682 179.656 139.682C178.833 139.682 178.094 139.856 177.441 140.204C176.794 140.552 176.283 141.06 175.906 141.727C175.537 142.395 175.352 143.205 175.352 144.156ZM195.378 154.384C194.341 154.384 193.4 154.188 192.555 153.798C191.71 153.4 191.039 152.828 190.542 152.082C190.044 151.33 189.796 150.42 189.796 149.355C189.796 148.418 189.98 147.658 190.35 147.075C190.719 146.486 191.213 146.024 191.831 145.69C192.449 145.357 193.13 145.108 193.876 144.945C194.629 144.774 195.385 144.639 196.145 144.54C197.14 144.412 197.946 144.316 198.564 144.252C199.189 144.181 199.643 144.064 199.927 143.901C200.218 143.737 200.364 143.453 200.364 143.048V142.963C200.364 141.912 200.076 141.095 199.501 140.513C198.933 139.93 198.07 139.639 196.912 139.639C195.712 139.639 194.771 139.902 194.089 140.428C193.407 140.953 192.928 141.514 192.651 142.111L190.265 141.259C190.691 140.264 191.259 139.49 191.969 138.936C192.686 138.375 193.468 137.984 194.313 137.764C195.165 137.537 196.003 137.423 196.827 137.423C197.353 137.423 197.956 137.487 198.638 137.615C199.327 137.736 199.991 137.988 200.63 138.371C201.277 138.755 201.813 139.334 202.239 140.108C202.665 140.882 202.878 141.919 202.878 143.219V154H200.364V151.784H200.236C200.066 152.139 199.782 152.519 199.384 152.924C198.986 153.329 198.457 153.673 197.797 153.957C197.136 154.241 196.33 154.384 195.378 154.384ZM195.762 152.125C196.756 152.125 197.594 151.93 198.276 151.539C198.965 151.148 199.483 150.644 199.831 150.026C200.186 149.408 200.364 148.759 200.364 148.077V145.776C200.257 145.903 200.023 146.021 199.661 146.127C199.306 146.227 198.894 146.315 198.425 146.393C197.963 146.464 197.512 146.528 197.072 146.585C196.639 146.635 196.287 146.678 196.017 146.713C195.364 146.798 194.753 146.937 194.185 147.129C193.624 147.313 193.169 147.594 192.821 147.97C192.48 148.339 192.31 148.844 192.31 149.483C192.31 150.357 192.633 151.017 193.279 151.464C193.933 151.905 194.76 152.125 195.762 152.125ZM214.584 137.636V139.767H206.104V137.636H214.584ZM208.575 133.716H211.089V149.312C211.089 150.023 211.192 150.555 211.398 150.911C211.611 151.259 211.881 151.493 212.208 151.614C212.542 151.727 212.893 151.784 213.263 151.784C213.54 151.784 213.767 151.77 213.944 151.741C214.122 151.706 214.264 151.678 214.371 151.656L214.882 153.915C214.711 153.979 214.474 154.043 214.168 154.107C213.863 154.178 213.476 154.213 213.007 154.213C212.297 154.213 211.601 154.06 210.919 153.755C210.244 153.45 209.683 152.984 209.236 152.359C208.795 151.734 208.575 150.946 208.575 149.994V133.716ZM9.16193 190.341C7.58523 190.341 6.22514 189.993 5.08168 189.297C3.94531 188.594 3.06818 187.614 2.45028 186.357C1.83949 185.092 1.53409 183.622 1.53409 181.946C1.53409 180.27 1.83949 178.793 2.45028 177.514C3.06818 176.229 3.92756 175.227 5.02841 174.51C6.13636 173.786 7.42898 173.423 8.90625 173.423C9.75852 173.423 10.6001 173.565 11.4311 173.849C12.2621 174.134 13.0185 174.595 13.7003 175.234C14.3821 175.866 14.9254 176.705 15.3303 177.749C15.7351 178.793 15.9375 180.078 15.9375 181.605V182.67H3.32386V180.497H13.3807C13.3807 179.574 13.196 178.75 12.8267 178.026C12.4645 177.301 11.946 176.729 11.2713 176.31C10.6037 175.891 9.81534 175.682 8.90625 175.682C7.90483 175.682 7.03835 175.93 6.30682 176.428C5.58239 176.918 5.02486 177.557 4.63423 178.345C4.24361 179.134 4.0483 179.979 4.0483 180.881V182.33C4.0483 183.565 4.26136 184.613 4.6875 185.472C5.12074 186.325 5.72088 186.974 6.48793 187.422C7.25497 187.862 8.14631 188.082 9.16193 188.082C9.82244 188.082 10.419 187.99 10.9517 187.805C11.4915 187.614 11.9567 187.33 12.3473 186.953C12.7379 186.57 13.0398 186.094 13.2528 185.526L15.6818 186.207C15.4261 187.031 14.9964 187.756 14.3928 188.381C13.7891 188.999 13.0433 189.482 12.1555 189.83C11.2678 190.17 10.2699 190.341 9.16193 190.341ZM21.1976 173.636L25.1181 180.327L29.0385 173.636H31.9363L26.6522 181.818L31.9363 190H29.0385L25.1181 183.651L21.1976 190H18.2999L23.4988 181.818L18.2999 173.636H21.1976ZM35.5238 190V173.636H38.038V190H35.5238ZM36.8022 170.909C36.3121 170.909 35.8896 170.742 35.5344 170.408C35.1864 170.075 35.0124 169.673 35.0124 169.205C35.0124 168.736 35.1864 168.335 35.5344 168.001C35.8896 167.667 36.3121 167.5 36.8022 167.5C37.2923 167.5 37.7113 167.667 38.0593 168.001C38.4144 168.335 38.592 168.736 38.592 169.205C38.592 169.673 38.4144 170.075 38.0593 170.408C37.7113 170.742 37.2923 170.909 36.8022 170.909ZM54.2338 177.301L51.9753 177.94C51.8333 177.564 51.6238 177.198 51.3468 176.843C51.0769 176.481 50.7076 176.183 50.2388 175.948C49.7701 175.714 49.1699 175.597 48.4384 175.597C47.437 175.597 46.6025 175.827 45.9348 176.289C45.2743 176.744 44.9441 177.322 44.9441 178.026C44.9441 178.651 45.1713 179.144 45.6259 179.506C46.0804 179.869 46.7907 180.17 47.7566 180.412L50.1855 181.009C51.6486 181.364 52.7388 181.907 53.4561 182.638C54.1735 183.363 54.5321 184.297 54.5321 185.44C54.5321 186.378 54.2623 187.216 53.7225 187.955C53.1898 188.693 52.4441 189.276 51.4853 189.702C50.5265 190.128 49.4114 190.341 48.1401 190.341C46.4711 190.341 45.0897 189.979 43.9959 189.254C42.9022 188.53 42.2097 187.472 41.9185 186.08L44.3049 185.483C44.5321 186.364 44.9618 187.024 45.5939 187.464C46.2331 187.905 47.0676 188.125 48.0975 188.125C49.2694 188.125 50.1998 187.876 50.8887 187.379C51.5847 186.875 51.9327 186.271 51.9327 185.568C51.9327 185 51.7338 184.524 51.3361 184.141C50.9384 183.75 50.3276 183.459 49.5037 183.267L46.7765 182.628C45.2779 182.273 44.177 181.722 43.4739 180.977C42.7779 180.224 42.4299 179.283 42.4299 178.153C42.4299 177.23 42.6891 176.413 43.2076 175.703C43.7331 174.993 44.4469 174.435 45.3489 174.031C46.258 173.626 47.2878 173.423 48.4384 173.423C50.0577 173.423 51.329 173.778 52.2523 174.489C53.1827 175.199 53.8432 176.136 54.2338 177.301ZM65.4332 173.636V175.767H56.9531V173.636H65.4332ZM59.4247 169.716H61.9389V185.312C61.9389 186.023 62.0419 186.555 62.2479 186.911C62.4609 187.259 62.7308 187.493 63.0575 187.614C63.3913 187.727 63.7429 187.784 64.1122 187.784C64.3892 187.784 64.6165 187.77 64.794 187.741C64.9716 187.706 65.1136 187.678 65.2202 187.656L65.7315 189.915C65.5611 189.979 65.3232 190.043 65.0178 190.107C64.7124 190.178 64.3253 190.213 63.8565 190.213C63.1463 190.213 62.4503 190.06 61.7685 189.755C61.0938 189.45 60.5327 188.984 60.0852 188.359C59.6449 187.734 59.4247 186.946 59.4247 185.994V169.716ZM80.5131 177.301L78.2546 177.94C78.1126 177.564 77.9031 177.198 77.6261 176.843C77.3562 176.481 76.9869 176.183 76.5181 175.948C76.0494 175.714 75.4492 175.597 74.7177 175.597C73.7163 175.597 72.8817 175.827 72.2141 176.289C71.5536 176.744 71.2234 177.322 71.2234 178.026C71.2234 178.651 71.4506 179.144 71.9052 179.506C72.3597 179.869 73.07 180.17 74.0359 180.412L76.4648 181.009C77.9279 181.364 79.0181 181.907 79.7354 182.638C80.4528 183.363 80.8114 184.297 80.8114 185.44C80.8114 186.378 80.5415 187.216 80.0018 187.955C79.4691 188.693 78.7234 189.276 77.7646 189.702C76.8058 190.128 75.6907 190.341 74.4194 190.341C72.7504 190.341 71.369 189.979 70.2752 189.254C69.1815 188.53 68.489 187.472 68.1978 186.08L70.5842 185.483C70.8114 186.364 71.2411 187.024 71.8732 187.464C72.5124 187.905 73.3469 188.125 74.3768 188.125C75.5487 188.125 76.479 187.876 77.168 187.379C77.864 186.875 78.212 186.271 78.212 185.568C78.212 185 78.0131 184.524 77.6154 184.141C77.2177 183.75 76.6069 183.459 75.783 183.267L73.0558 182.628C71.5572 182.273 70.4563 181.722 69.7532 180.977C69.0572 180.224 68.7092 179.283 68.7092 178.153C68.7092 177.23 68.9684 176.413 69.4869 175.703C70.0124 174.993 70.7262 174.435 71.6282 174.031C72.5373 173.626 73.5671 173.423 74.7177 173.423C76.337 173.423 77.6083 173.778 78.5316 174.489C79.462 175.199 80.1225 176.136 80.5131 177.301ZM93.0336 190V173.636H95.5478V190H93.0336ZM94.312 170.909C93.8219 170.909 93.3993 170.742 93.0442 170.408C92.6962 170.075 92.5222 169.673 92.5222 169.205C92.5222 168.736 92.6962 168.335 93.0442 168.001C93.3993 167.667 93.8219 167.5 94.312 167.5C94.802 167.5 95.2211 167.667 95.5691 168.001C95.9242 168.335 96.1017 168.736 96.1017 169.205C96.1017 169.673 95.9242 170.075 95.5691 170.408C95.2211 170.742 94.802 170.909 94.312 170.909ZM111.744 177.301L109.485 177.94C109.343 177.564 109.134 177.198 108.857 176.843C108.587 176.481 108.217 176.183 107.749 175.948C107.28 175.714 106.68 175.597 105.948 175.597C104.947 175.597 104.112 175.827 103.445 176.289C102.784 176.744 102.454 177.322 102.454 178.026C102.454 178.651 102.681 179.144 103.136 179.506C103.59 179.869 104.3 180.17 105.266 180.412L107.695 181.009C109.158 181.364 110.249 181.907 110.966 182.638C111.683 183.363 112.042 184.297 112.042 185.44C112.042 186.378 111.772 187.216 111.232 187.955C110.7 188.693 109.954 189.276 108.995 189.702C108.036 190.128 106.921 190.341 105.65 190.341C103.981 190.341 102.599 189.979 101.506 189.254C100.412 188.53 99.7195 187.472 99.4283 186.08L101.815 185.483C102.042 186.364 102.472 187.024 103.104 187.464C103.743 187.905 104.577 188.125 105.607 188.125C106.779 188.125 107.71 187.876 108.398 187.379C109.094 186.875 109.442 186.271 109.442 185.568C109.442 185 109.244 184.524 108.846 184.141C108.448 183.75 107.837 183.459 107.013 183.267L104.286 182.628C102.788 182.273 101.687 181.722 100.984 180.977C100.288 180.224 99.9396 179.283 99.9396 178.153C99.9396 177.23 100.199 176.413 100.717 175.703C101.243 174.993 101.957 174.435 102.859 174.031C103.768 173.626 104.798 173.423 105.948 173.423C107.567 173.423 108.839 173.778 109.762 174.489C110.692 175.199 111.353 176.136 111.744 177.301ZM129.079 190.384C128.042 190.384 127.101 190.188 126.256 189.798C125.411 189.4 124.74 188.828 124.243 188.082C123.746 187.33 123.497 186.42 123.497 185.355C123.497 184.418 123.682 183.658 124.051 183.075C124.42 182.486 124.914 182.024 125.532 181.69C126.15 181.357 126.831 181.108 127.577 180.945C128.33 180.774 129.086 180.639 129.846 180.54C130.841 180.412 131.647 180.316 132.265 180.252C132.89 180.181 133.344 180.064 133.628 179.901C133.92 179.737 134.065 179.453 134.065 179.048V178.963C134.065 177.912 133.778 177.095 133.202 176.513C132.634 175.93 131.771 175.639 130.613 175.639C129.413 175.639 128.472 175.902 127.79 176.428C127.108 176.953 126.629 177.514 126.352 178.111L123.966 177.259C124.392 176.264 124.96 175.49 125.67 174.936C126.388 174.375 127.169 173.984 128.014 173.764C128.866 173.537 129.704 173.423 130.528 173.423C131.054 173.423 131.657 173.487 132.339 173.615C133.028 173.736 133.692 173.988 134.331 174.371C134.978 174.755 135.514 175.334 135.94 176.108C136.366 176.882 136.579 177.919 136.579 179.219V190H134.065V187.784H133.937C133.767 188.139 133.483 188.519 133.085 188.924C132.687 189.329 132.158 189.673 131.498 189.957C130.837 190.241 130.031 190.384 129.079 190.384ZM129.463 188.125C130.457 188.125 131.295 187.93 131.977 187.539C132.666 187.148 133.184 186.644 133.532 186.026C133.888 185.408 134.065 184.759 134.065 184.077V181.776C133.959 181.903 133.724 182.021 133.362 182.127C133.007 182.227 132.595 182.315 132.126 182.393C131.665 182.464 131.214 182.528 130.773 182.585C130.34 182.635 129.988 182.678 129.719 182.713C129.065 182.798 128.454 182.937 127.886 183.129C127.325 183.313 126.871 183.594 126.523 183.97C126.182 184.339 126.011 184.844 126.011 185.483C126.011 186.357 126.334 187.017 126.981 187.464C127.634 187.905 128.461 188.125 129.463 188.125ZM143.683 180.156V190H141.168V173.636H143.597V176.193H143.81C144.194 175.362 144.776 174.695 145.558 174.19C146.339 173.679 147.347 173.423 148.583 173.423C149.691 173.423 150.661 173.651 151.491 174.105C152.322 174.553 152.969 175.234 153.43 176.151C153.892 177.06 154.123 178.21 154.123 179.602V190H151.609V179.773C151.609 178.487 151.275 177.486 150.607 176.768C149.94 176.044 149.023 175.682 147.859 175.682C147.056 175.682 146.339 175.856 145.707 176.204C145.082 176.552 144.588 177.06 144.226 177.727C143.864 178.395 143.683 179.205 143.683 180.156Z" fill="#6CABDD"/>
<path d="M470.162 150.341C468.585 150.341 467.225 149.993 466.082 149.297C464.945 148.594 464.068 147.614 463.45 146.357C462.839 145.092 462.534 143.622 462.534 141.946C462.534 140.27 462.839 138.793 463.45 137.514C464.068 136.229 464.928 135.227 466.028 134.51C467.136 133.786 468.429 133.423 469.906 133.423C470.759 133.423 471.6 133.565 472.431 133.849C473.262 134.134 474.018 134.595 474.7 135.234C475.382 135.866 475.925 136.705 476.33 137.749C476.735 138.793 476.938 140.078 476.938 141.605V142.67H464.324V140.497H474.381C474.381 139.574 474.196 138.75 473.827 138.026C473.464 137.301 472.946 136.729 472.271 136.31C471.604 135.891 470.815 135.682 469.906 135.682C468.905 135.682 468.038 135.93 467.307 136.428C466.582 136.918 466.025 137.557 465.634 138.345C465.244 139.134 465.048 139.979 465.048 140.881V142.33C465.048 143.565 465.261 144.613 465.688 145.472C466.121 146.325 466.721 146.974 467.488 147.422C468.255 147.862 469.146 148.082 470.162 148.082C470.822 148.082 471.419 147.99 471.952 147.805C472.491 147.614 472.957 147.33 473.347 146.953C473.738 146.57 474.04 146.094 474.253 145.526L476.682 146.207C476.426 147.031 475.996 147.756 475.393 148.381C474.789 148.999 474.043 149.482 473.156 149.83C472.268 150.17 471.27 150.341 470.162 150.341ZM493.645 133.636L487.594 150H485.037L478.986 133.636H481.713L486.23 146.676H486.4L490.917 133.636H493.645ZM503.238 150.341C501.661 150.341 500.301 149.993 499.158 149.297C498.021 148.594 497.144 147.614 496.526 146.357C495.916 145.092 495.61 143.622 495.61 141.946C495.61 140.27 495.916 138.793 496.526 137.514C497.144 136.229 498.004 135.227 499.105 134.51C500.213 133.786 501.505 133.423 502.982 133.423C503.835 133.423 504.676 133.565 505.507 133.849C506.338 134.134 507.095 134.595 507.776 135.234C508.458 135.866 509.002 136.705 509.406 137.749C509.811 138.793 510.014 140.078 510.014 141.605V142.67H497.4V140.497H507.457C507.457 139.574 507.272 138.75 506.903 138.026C506.541 137.301 506.022 136.729 505.347 136.31C504.68 135.891 503.892 135.682 502.982 135.682C501.981 135.682 501.115 135.93 500.383 136.428C499.659 136.918 499.101 137.557 498.71 138.345C498.32 139.134 498.124 139.979 498.124 140.881V142.33C498.124 143.565 498.338 144.613 498.764 145.472C499.197 146.325 499.797 146.974 500.564 147.422C501.331 147.862 502.222 148.082 503.238 148.082C503.899 148.082 504.495 147.99 505.028 147.805C505.568 147.614 506.033 147.33 506.423 146.953C506.814 146.57 507.116 146.094 507.329 145.526L509.758 146.207C509.502 147.031 509.073 147.756 508.469 148.381C507.865 148.999 507.119 149.482 506.232 149.83C505.344 150.17 504.346 150.341 503.238 150.341ZM513.838 150V133.636H516.267V136.108H516.438C516.736 135.298 517.276 134.641 518.057 134.137C518.838 133.633 519.719 133.381 520.699 133.381C520.884 133.381 521.115 133.384 521.392 133.391C521.669 133.398 521.878 133.409 522.02 133.423V135.98C521.935 135.959 521.74 135.927 521.434 135.884C521.136 135.835 520.82 135.81 520.486 135.81C519.691 135.81 518.98 135.977 518.355 136.31C517.737 136.637 517.247 137.092 516.885 137.674C516.53 138.249 516.352 138.906 516.352 139.645V150H513.838ZM527.118 156.094C526.692 156.094 526.312 156.058 525.978 155.987C525.644 155.923 525.413 155.859 525.285 155.795L525.925 153.58C526.841 153.814 527.604 153.807 528.215 153.558C528.826 153.317 529.355 152.585 529.802 151.364L530.271 150.085L524.22 133.636H526.947L531.464 146.676H531.635L536.152 133.636L538.9 133.679L531.933 152.386C531.621 153.217 531.233 153.906 530.772 154.453C530.31 155.007 529.774 155.419 529.163 155.689C528.559 155.959 527.878 156.094 527.118 156.094ZM549.343 133.636V135.767H540.863V133.636H549.343ZM543.335 129.716H545.849V145.312C545.849 146.023 545.952 146.555 546.158 146.911C546.371 147.259 546.641 147.493 546.968 147.614C547.301 147.727 547.653 147.784 548.022 147.784C548.299 147.784 548.527 147.77 548.704 147.741C548.882 147.706 549.024 147.678 549.13 147.656L549.642 149.915C549.471 149.979 549.233 150.043 548.928 150.107C548.623 150.178 548.235 150.213 547.767 150.213C547.056 150.213 546.36 150.06 545.679 149.755C545.004 149.45 544.443 148.984 543.995 148.359C543.555 147.734 543.335 146.946 543.335 145.994V129.716ZM555.991 140.156V150H553.477V128.182H555.991V136.193H556.204C556.588 135.348 557.163 134.677 557.93 134.18C558.704 133.675 559.734 133.423 561.02 133.423C562.135 133.423 563.111 133.647 563.949 134.094C564.787 134.535 565.437 135.213 565.899 136.129C566.368 137.038 566.602 138.196 566.602 139.602V150H564.088V139.773C564.088 138.473 563.75 137.468 563.076 136.758C562.408 136.04 561.481 135.682 560.295 135.682C559.471 135.682 558.733 135.856 558.079 136.204C557.433 136.552 556.922 137.06 556.545 137.727C556.176 138.395 555.991 139.205 555.991 140.156ZM571.202 150V133.636H573.716V150H571.202ZM572.48 130.909C571.99 130.909 571.567 130.742 571.212 130.408C570.864 130.075 570.69 129.673 570.69 129.205C570.69 128.736 570.864 128.335 571.212 128.001C571.567 127.667 571.99 127.5 572.48 127.5C572.97 127.5 573.389 127.667 573.737 128.001C574.092 128.335 574.27 128.736 574.27 129.205C574.27 129.673 574.092 130.075 573.737 130.408C573.389 130.742 572.97 130.909 572.48 130.909ZM580.835 140.156V150H578.321V133.636H580.75V136.193H580.963C581.346 135.362 581.929 134.695 582.71 134.19C583.491 133.679 584.5 133.423 585.735 133.423C586.843 133.423 587.813 133.651 588.644 134.105C589.475 134.553 590.121 135.234 590.583 136.151C591.044 137.06 591.275 138.21 591.275 139.602V150H588.761V139.773C588.761 138.487 588.427 137.486 587.76 136.768C587.092 136.044 586.176 135.682 585.011 135.682C584.208 135.682 583.491 135.856 582.859 136.204C582.234 136.552 581.74 137.06 581.378 137.727C581.016 138.395 580.835 139.205 580.835 140.156ZM602.475 156.477C601.26 156.477 600.216 156.321 599.343 156.009C598.469 155.703 597.741 155.298 597.159 154.794C596.583 154.297 596.125 153.764 595.784 153.196L597.787 151.79C598.014 152.088 598.302 152.429 598.65 152.812C598.998 153.203 599.474 153.54 600.078 153.825C600.688 154.116 601.487 154.261 602.475 154.261C603.796 154.261 604.886 153.942 605.745 153.303C606.605 152.663 607.034 151.662 607.034 150.298V146.974H606.821C606.637 147.273 606.374 147.642 606.033 148.082C605.699 148.516 605.216 148.903 604.584 149.244C603.959 149.577 603.114 149.744 602.048 149.744C600.727 149.744 599.541 149.432 598.49 148.807C597.446 148.182 596.619 147.273 596.008 146.08C595.404 144.886 595.102 143.437 595.102 141.733C595.102 140.057 595.397 138.597 595.987 137.354C596.576 136.104 597.396 135.138 598.448 134.457C599.499 133.768 600.713 133.423 602.091 133.423C603.156 133.423 604.002 133.601 604.627 133.956C605.259 134.304 605.742 134.702 606.075 135.149C606.416 135.589 606.679 135.952 606.864 136.236H607.119V133.636H609.548V150.469C609.548 151.875 609.229 153.018 608.59 153.899C607.958 154.787 607.105 155.437 606.033 155.849C604.968 156.268 603.781 156.477 602.475 156.477ZM602.389 147.486C603.398 147.486 604.25 147.255 604.946 146.793C605.642 146.332 606.171 145.668 606.534 144.801C606.896 143.935 607.077 142.898 607.077 141.69C607.077 140.511 606.899 139.471 606.544 138.569C606.189 137.667 605.664 136.96 604.968 136.449C604.271 135.937 603.412 135.682 602.389 135.682C601.324 135.682 600.436 135.952 599.726 136.491C599.023 137.031 598.494 137.756 598.139 138.665C597.791 139.574 597.617 140.582 597.617 141.69C597.617 142.827 597.794 143.832 598.149 144.705C598.512 145.572 599.044 146.254 599.747 146.751C600.458 147.241 601.338 147.486 602.389 147.486ZM629.705 133.636V135.767H621.225V133.636H629.705ZM623.696 129.716H626.21V145.312C626.21 146.023 626.313 146.555 626.519 146.911C626.732 147.259 627.002 147.493 627.329 147.614C627.663 147.727 628.014 147.784 628.384 147.784C628.661 147.784 628.888 147.77 629.066 147.741C629.243 147.706 629.385 147.678 629.492 147.656L630.003 149.915C629.833 149.979 629.595 150.043 629.289 150.107C628.984 150.178 628.597 150.213 628.128 150.213C627.418 150.213 626.722 150.06 626.04 149.755C625.365 149.45 624.804 148.984 624.357 148.359C623.916 147.734 623.696 146.946 623.696 145.994V129.716ZM636.352 140.156V150H633.838V128.182H636.352V136.193H636.566C636.949 135.348 637.524 134.677 638.291 134.18C639.066 133.675 640.095 133.423 641.381 133.423C642.496 133.423 643.472 133.647 644.311 134.094C645.149 134.535 645.798 135.213 646.26 136.129C646.729 137.038 646.963 138.196 646.963 139.602V150H644.449V139.773C644.449 138.473 644.112 137.468 643.437 136.758C642.769 136.04 641.843 135.682 640.656 135.682C639.833 135.682 639.094 135.856 638.441 136.204C637.794 136.552 637.283 137.06 636.906 137.727C636.537 138.395 636.352 139.205 636.352 140.156ZM656.378 150.384C655.341 150.384 654.4 150.188 653.555 149.798C652.71 149.4 652.039 148.828 651.542 148.082C651.044 147.33 650.796 146.42 650.796 145.355C650.796 144.418 650.98 143.658 651.35 143.075C651.719 142.486 652.213 142.024 652.831 141.69C653.449 141.357 654.13 141.108 654.876 140.945C655.629 140.774 656.385 140.639 657.145 140.54C658.14 140.412 658.946 140.316 659.564 140.252C660.189 140.181 660.643 140.064 660.927 139.901C661.218 139.737 661.364 139.453 661.364 139.048V138.963C661.364 137.912 661.076 137.095 660.501 136.513C659.933 135.93 659.07 135.639 657.912 135.639C656.712 135.639 655.771 135.902 655.089 136.428C654.407 136.953 653.928 137.514 653.651 138.111L651.265 137.259C651.691 136.264 652.259 135.49 652.969 134.936C653.686 134.375 654.468 133.984 655.313 133.764C656.165 133.537 657.003 133.423 657.827 133.423C658.353 133.423 658.956 133.487 659.638 133.615C660.327 133.736 660.991 133.988 661.63 134.371C662.277 134.755 662.813 135.334 663.239 136.108C663.665 136.882 663.878 137.919 663.878 139.219V150H661.364V147.784H661.236C661.066 148.139 660.782 148.519 660.384 148.924C659.986 149.329 659.457 149.673 658.797 149.957C658.136 150.241 657.33 150.384 656.378 150.384ZM656.762 148.125C657.756 148.125 658.594 147.93 659.276 147.539C659.965 147.148 660.483 146.644 660.831 146.026C661.186 145.408 661.364 144.759 661.364 144.077V141.776C661.257 141.903 661.023 142.021 660.661 142.127C660.306 142.227 659.894 142.315 659.425 142.393C658.963 142.464 658.512 142.528 658.072 142.585C657.639 142.635 657.287 142.678 657.017 142.713C656.364 142.798 655.753 142.937 655.185 143.129C654.624 143.313 654.169 143.594 653.821 143.97C653.48 144.339 653.31 144.844 653.31 145.483C653.31 146.357 653.633 147.017 654.279 147.464C654.933 147.905 655.76 148.125 656.762 148.125ZM675.584 133.636V135.767H667.104V133.636H675.584ZM669.575 129.716H672.089V145.312C672.089 146.023 672.192 146.555 672.398 146.911C672.611 147.259 672.881 147.493 673.208 147.614C673.542 147.727 673.893 147.784 674.263 147.784C674.54 147.784 674.767 147.77 674.944 147.741C675.122 147.706 675.264 147.678 675.371 147.656L675.882 149.915C675.711 149.979 675.474 150.043 675.168 150.107C674.863 150.178 674.476 150.213 674.007 150.213C673.297 150.213 672.601 150.06 671.919 149.755C671.244 149.45 670.683 148.984 670.236 148.359C669.795 147.734 669.575 146.946 669.575 145.994V129.716ZM465.815 176.156V186H463.301V164.182H465.815V172.193H466.028C466.412 171.348 466.987 170.677 467.754 170.18C468.528 169.675 469.558 169.423 470.844 169.423C471.959 169.423 472.935 169.647 473.773 170.094C474.612 170.535 475.261 171.213 475.723 172.129C476.192 173.038 476.426 174.196 476.426 175.602V186H473.912V175.773C473.912 174.473 473.575 173.468 472.9 172.758C472.232 172.04 471.305 171.682 470.119 171.682C469.295 171.682 468.557 171.856 467.903 172.204C467.257 172.552 466.746 173.06 466.369 173.727C466 174.395 465.815 175.205 465.815 176.156ZM485.841 186.384C484.804 186.384 483.863 186.188 483.018 185.798C482.173 185.4 481.502 184.828 481.004 184.082C480.507 183.33 480.259 182.42 480.259 181.355C480.259 180.418 480.443 179.658 480.813 179.075C481.182 178.486 481.676 178.024 482.294 177.69C482.911 177.357 483.593 177.108 484.339 176.945C485.092 176.774 485.848 176.639 486.608 176.54C487.602 176.412 488.409 176.316 489.026 176.252C489.651 176.181 490.106 176.064 490.39 175.901C490.681 175.737 490.827 175.453 490.827 175.048V174.963C490.827 173.912 490.539 173.095 489.964 172.513C489.396 171.93 488.533 171.639 487.375 171.639C486.175 171.639 485.234 171.902 484.552 172.428C483.87 172.953 483.391 173.514 483.114 174.111L480.727 173.259C481.154 172.264 481.722 171.49 482.432 170.936C483.149 170.375 483.931 169.984 484.776 169.764C485.628 169.537 486.466 169.423 487.29 169.423C487.816 169.423 488.419 169.487 489.101 169.615C489.79 169.736 490.454 169.988 491.093 170.371C491.74 170.755 492.276 171.334 492.702 172.108C493.128 172.882 493.341 173.919 493.341 175.219V186H490.827V183.784H490.699C490.529 184.139 490.244 184.519 489.847 184.924C489.449 185.329 488.92 185.673 488.259 185.957C487.599 186.241 486.793 186.384 485.841 186.384ZM486.225 184.125C487.219 184.125 488.057 183.93 488.739 183.539C489.428 183.148 489.946 182.644 490.294 182.026C490.649 181.408 490.827 180.759 490.827 180.077V177.776C490.72 177.903 490.486 178.021 490.124 178.127C489.769 178.227 489.357 178.315 488.888 178.393C488.426 178.464 487.975 178.528 487.535 178.585C487.102 178.635 486.75 178.678 486.48 178.713C485.827 178.798 485.216 178.937 484.648 179.129C484.087 179.313 483.632 179.594 483.284 179.97C482.943 180.339 482.773 180.844 482.773 181.483C482.773 182.357 483.096 183.017 483.742 183.464C484.396 183.905 485.223 184.125 486.225 184.125ZM497.93 192.136V169.636H500.359V172.236H500.657C500.842 171.952 501.098 171.589 501.424 171.149C501.758 170.702 502.234 170.304 502.852 169.956C503.477 169.601 504.322 169.423 505.387 169.423C506.765 169.423 507.98 169.768 509.031 170.457C510.082 171.146 510.902 172.122 511.492 173.386C512.081 174.651 512.376 176.142 512.376 177.861C512.376 179.594 512.081 181.096 511.492 182.367C510.902 183.631 510.086 184.612 509.042 185.308C507.998 185.996 506.794 186.341 505.43 186.341C504.379 186.341 503.537 186.167 502.905 185.819C502.273 185.464 501.787 185.062 501.446 184.615C501.105 184.161 500.842 183.784 500.657 183.486H500.444V192.136H497.93ZM500.402 177.818C500.402 179.054 500.583 180.144 500.945 181.089C501.307 182.026 501.836 182.761 502.532 183.294C503.228 183.82 504.081 184.082 505.089 184.082C506.14 184.082 507.017 183.805 507.721 183.251C508.431 182.69 508.963 181.937 509.319 180.993C509.681 180.041 509.862 178.983 509.862 177.818C509.862 176.668 509.684 175.631 509.329 174.707C508.981 173.777 508.452 173.042 507.742 172.502C507.039 171.955 506.154 171.682 505.089 171.682C504.066 171.682 503.207 171.941 502.511 172.46C501.815 172.971 501.289 173.688 500.934 174.612C500.579 175.528 500.402 176.597 500.402 177.818ZM516.211 192.136V169.636H518.64V172.236H518.939C519.123 171.952 519.379 171.589 519.706 171.149C520.039 170.702 520.515 170.304 521.133 169.956C521.758 169.601 522.603 169.423 523.669 169.423C525.047 169.423 526.261 169.768 527.312 170.457C528.363 171.146 529.184 172.122 529.773 173.386C530.363 174.651 530.657 176.142 530.657 177.861C530.657 179.594 530.363 181.096 529.773 182.367C529.184 183.631 528.367 184.612 527.323 185.308C526.279 185.996 525.075 186.341 523.711 186.341C522.66 186.341 521.819 186.167 521.186 185.819C520.554 185.464 520.068 185.062 519.727 184.615C519.386 184.161 519.123 183.784 518.939 183.486H518.725V192.136H516.211ZM518.683 177.818C518.683 179.054 518.864 180.144 519.226 181.089C519.588 182.026 520.118 182.761 520.814 183.294C521.51 183.82 522.362 184.082 523.37 184.082C524.422 184.082 525.299 183.805 526.002 183.251C526.712 182.69 527.245 181.937 527.6 180.993C527.962 180.041 528.143 178.983 528.143 177.818C528.143 176.668 527.966 175.631 527.61 174.707C527.262 173.777 526.733 173.042 526.023 172.502C525.32 171.955 524.436 171.682 523.37 171.682C522.348 171.682 521.488 171.941 520.792 172.46C520.096 172.971 519.571 173.688 519.216 174.612C518.86 175.528 518.683 176.597 518.683 177.818ZM541.353 186.341C539.777 186.341 538.417 185.993 537.273 185.297C536.137 184.594 535.26 183.614 534.642 182.357C534.031 181.092 533.725 179.622 533.725 177.946C533.725 176.27 534.031 174.793 534.642 173.514C535.26 172.229 536.119 171.227 537.22 170.51C538.328 169.786 539.62 169.423 541.098 169.423C541.95 169.423 542.792 169.565 543.623 169.849C544.453 170.134 545.21 170.595 545.892 171.234C546.574 171.866 547.117 172.705 547.522 173.749C547.926 174.793 548.129 176.078 548.129 177.605V178.67H535.515V176.497H545.572C545.572 175.574 545.387 174.75 545.018 174.026C544.656 173.301 544.137 172.729 543.463 172.31C542.795 171.891 542.007 171.682 541.098 171.682C540.096 171.682 539.23 171.93 538.498 172.428C537.774 172.918 537.216 173.557 536.826 174.345C536.435 175.134 536.24 175.979 536.24 176.881V178.33C536.24 179.565 536.453 180.613 536.879 181.472C537.312 182.325 537.912 182.974 538.679 183.422C539.446 183.862 540.338 184.082 541.353 184.082C542.014 184.082 542.61 183.99 543.143 183.805C543.683 183.614 544.148 183.33 544.539 182.953C544.929 182.57 545.231 182.094 545.444 181.526L547.873 182.207C547.618 183.031 547.188 183.756 546.584 184.381C545.98 184.999 545.235 185.482 544.347 185.83C543.459 186.17 542.461 186.341 541.353 186.341ZM554.468 176.156V186H551.953V169.636H554.382V172.193H554.596C554.979 171.362 555.561 170.695 556.343 170.19C557.124 169.679 558.132 169.423 559.368 169.423C560.476 169.423 561.446 169.651 562.277 170.105C563.108 170.553 563.754 171.234 564.216 172.151C564.677 173.06 564.908 174.21 564.908 175.602V186H562.394V175.773C562.394 174.487 562.06 173.486 561.392 172.768C560.725 172.044 559.809 171.682 558.644 171.682C557.841 171.682 557.124 171.856 556.492 172.204C555.867 172.552 555.373 173.06 555.011 173.727C554.649 174.395 554.468 175.205 554.468 176.156ZM581.093 173.301L578.835 173.94C578.693 173.564 578.483 173.198 578.206 172.843C577.936 172.481 577.567 172.183 577.098 171.948C576.629 171.714 576.029 171.597 575.298 171.597C574.296 171.597 573.462 171.827 572.794 172.289C572.134 172.744 571.803 173.322 571.803 174.026C571.803 174.651 572.031 175.144 572.485 175.506C572.94 175.869 573.65 176.17 574.616 176.412L577.045 177.009C578.508 177.364 579.598 177.907 580.316 178.638C581.033 179.363 581.392 180.297 581.392 181.44C581.392 182.378 581.122 183.216 580.582 183.955C580.049 184.693 579.303 185.276 578.345 185.702C577.386 186.128 576.271 186.341 574.999 186.341C573.33 186.341 571.949 185.979 570.855 185.254C569.762 184.53 569.069 183.472 568.778 182.08L571.164 181.483C571.392 182.364 571.821 183.024 572.453 183.464C573.093 183.905 573.927 184.125 574.957 184.125C576.129 184.125 577.059 183.876 577.748 183.379C578.444 182.875 578.792 182.271 578.792 181.568C578.792 181 578.593 180.524 578.195 180.141C577.798 179.75 577.187 179.459 576.363 179.267L573.636 178.628C572.137 178.273 571.036 177.722 570.333 176.977C569.637 176.224 569.289 175.283 569.289 174.153C569.289 173.23 569.548 172.413 570.067 171.703C570.593 170.993 571.306 170.435 572.208 170.031C573.117 169.626 574.147 169.423 575.298 169.423C576.917 169.423 578.188 169.778 579.112 170.489C580.042 171.199 580.703 172.136 581.093 173.301ZM593.614 186V169.636H596.128V186H593.614ZM594.892 166.909C594.402 166.909 593.979 166.742 593.624 166.408C593.276 166.075 593.102 165.673 593.102 165.205C593.102 164.736 593.276 164.335 593.624 164.001C593.979 163.667 594.402 163.5 594.892 163.5C595.382 163.5 595.801 163.667 596.149 164.001C596.504 164.335 596.682 164.736 596.682 165.205C596.682 165.673 596.504 166.075 596.149 166.408C595.801 166.742 595.382 166.909 594.892 166.909ZM612.324 173.301L610.065 173.94C609.923 173.564 609.714 173.198 609.437 172.843C609.167 172.481 608.797 172.183 608.329 171.948C607.86 171.714 607.26 171.597 606.528 171.597C605.527 171.597 604.692 171.827 604.025 172.289C603.364 172.744 603.034 173.322 603.034 174.026C603.034 174.651 603.261 175.144 603.716 175.506C604.17 175.869 604.881 176.17 605.846 176.412L608.275 177.009C609.738 177.364 610.829 177.907 611.546 178.638C612.263 179.363 612.622 180.297 612.622 181.44C612.622 182.378 612.352 183.216 611.812 183.955C611.28 184.693 610.534 185.276 609.575 185.702C608.616 186.128 607.501 186.341 606.23 186.341C604.561 186.341 603.18 185.979 602.086 185.254C600.992 184.53 600.3 183.472 600.008 182.08L602.395 181.483C602.622 182.364 603.052 183.024 603.684 183.464C604.323 183.905 605.157 184.125 606.187 184.125C607.359 184.125 608.29 183.876 608.979 183.379C609.675 182.875 610.023 182.271 610.023 181.568C610.023 181 609.824 180.524 609.426 180.141C609.028 179.75 608.417 179.459 607.594 179.267L604.866 178.628C603.368 178.273 602.267 177.722 601.564 176.977C600.868 176.224 600.52 175.283 600.52 174.153C600.52 173.23 600.779 172.413 601.297 171.703C601.823 170.993 602.537 170.435 603.439 170.031C604.348 169.626 605.378 169.423 606.528 169.423C608.148 169.423 609.419 169.778 610.342 170.489C611.273 171.199 611.933 172.136 612.324 173.301ZM629.659 186.384C628.623 186.384 627.681 186.188 626.836 185.798C625.991 185.4 625.32 184.828 624.823 184.082C624.326 183.33 624.077 182.42 624.077 181.355C624.077 180.418 624.262 179.658 624.631 179.075C625 178.486 625.494 178.024 626.112 177.69C626.73 177.357 627.412 177.108 628.157 176.945C628.91 176.774 629.667 176.639 630.426 176.54C631.421 176.412 632.227 176.316 632.845 176.252C633.47 176.181 633.924 176.064 634.208 175.901C634.5 175.737 634.645 175.453 634.645 175.048V174.963C634.645 173.912 634.358 173.095 633.782 172.513C633.214 171.93 632.351 171.639 631.194 171.639C629.993 171.639 629.052 171.902 628.37 172.428C627.689 172.953 627.209 173.514 626.932 174.111L624.546 173.259C624.972 172.264 625.54 171.49 626.25 170.936C626.968 170.375 627.749 169.984 628.594 169.764C629.446 169.537 630.284 169.423 631.108 169.423C631.634 169.423 632.238 169.487 632.919 169.615C633.608 169.736 634.272 169.988 634.912 170.371C635.558 170.755 636.094 171.334 636.52 172.108C636.946 172.882 637.159 173.919 637.159 175.219V186H634.645V183.784H634.517C634.347 184.139 634.063 184.519 633.665 184.924C633.267 185.329 632.738 185.673 632.078 185.957C631.417 186.241 630.611 186.384 629.659 186.384ZM630.043 184.125C631.037 184.125 631.875 183.93 632.557 183.539C633.246 183.148 633.765 182.644 634.113 182.026C634.468 181.408 634.645 180.759 634.645 180.077V177.776C634.539 177.903 634.304 178.021 633.942 178.127C633.587 178.227 633.175 178.315 632.706 178.393C632.245 178.464 631.794 178.528 631.353 178.585C630.92 178.635 630.569 178.678 630.299 178.713C629.645 178.798 629.034 178.937 628.466 179.129C627.905 179.313 627.451 179.594 627.103 179.97C626.762 180.339 626.591 180.844 626.591 181.483C626.591 182.357 626.914 183.017 627.561 183.464C628.214 183.905 629.042 184.125 630.043 184.125Z" fill="#FF7400"/>
</svg>
